<svg width="40" height="40" fill="none" xmlns="http://www.w3.org/2000/svg"><path d="M17 23h16c.6 0 1-.4 1-1V8c0-.6-.4-1-1-1H17c-.6 0-1 .4-1 1v14c0 .6.4 1 1 1zm7-14h2v2.6l-.3-.3c-.4-.4-1-.4-1.4 0l-.3.3V9zm-6 0h4v5c0 .4.2.8.6.9.4.2.8.1 1.1-.2l1.3-1.3 1.3 1.3c.2.2.4.3.7.3.1 0 .3 0 .4-.1.4-.2.6-.5.6-.9V9h4v12H18V9z" fill="#31303E"/><path d="M39 27H11.9L10 5.9c0-.5-.5-.9-1-.9H1c-.6 0-1 .4-1 1s.4 1 1 1h7.1L10 28.1c0 .5.5.9 1 .9h3.6c-.3.6-.6 1.3-.6 2 0 2.2 1.8 4 4 4s4-1.8 4-4c0-.7-.2-1.4-.6-2h7.1c-.3.6-.6 1.3-.6 2 0 2.2 1.8 4 4 4s4-1.8 4-4c0-.7-.2-1.4-.6-2h3.6c.6 0 1-.4 1-1s-.3-1-.9-1zm-19 4c0 1.1-.9 2-2 2s-2-.9-2-2 .9-2 2-2 2 .9 2 2zm14 0c0 1.1-.9 2-2 2s-2-.9-2-2 .9-2 2-2 2 .9 2 2z" fill="#C5691C"/></svg>