<svg width="40" height="40" fill="none" xmlns="http://www.w3.org/2000/svg"><g clip-path="url(#clip0)"><path d="M20 34c7.7 0 14-6.3 14-14S27.7 6 20 6 6 12.3 6 20s6.3 14 14 14zM8.5 23.5c1.5.9 3.6 1.6 5.9 2 .4 2.3 1.1 4.4 2 5.9-3.7-1.1-6.7-4.1-7.9-7.9zM20 8c1.2 0 2.6 2.3 3.4 6.2-1.1-.1-2.3-.2-3.4-.2s-2.3.1-3.4.2C17.4 10.3 18.8 8 20 8zm0 8c1.4 0 2.6.1 3.8.2.1 1.2.2 2.4.2 3.8s-.1 2.6-.2 3.8c-1.2.1-2.4.2-3.8.2s-2.6-.1-3.8-.2c-.1-1.2-.2-2.4-.2-3.8s.1-2.6.2-3.8c1.2-.1 2.4-.2 3.8-.2zm5.8.6c3.9.8 6.2 2.3 6.2 3.4s-2.3 2.7-6.2 3.4c.1-1.1.2-2.3.2-3.4s-.1-2.3-.2-3.4zM20 32c-1.2 0-2.6-2.3-3.4-6.2 1.1.1 2.3.2 3.4.2s2.3-.1 3.4-.2c-.8 3.9-2.2 6.2-3.4 6.2zm-5.8-8.6C10.3 22.6 8 21.1 8 20s2.3-2.7 6.2-3.4c-.1 1.1-.2 2.3-.2 3.4s.1 2.3.2 3.4zm9.3 8.1c.9-1.5 1.6-3.6 2-5.9 2.3-.4 4.4-1.1 5.9-2-1.1 3.7-4.1 6.7-7.9 7.9zm8-15c-1.5-.9-3.6-1.6-5.9-2-.4-2.3-1.1-4.4-2-5.9 3.7 1.1 6.7 4.1 7.9 7.9zm-15-8c-.9 1.5-1.6 3.6-2 5.9-2.3.4-4.4 1.1-5.9 2 1.1-3.7 4.1-6.7 7.9-7.9z" fill="#C5691C"/><path d="M39.2 10c-.5-.1-1.1.2-1.2.8l-.1.4C34.7 4.5 27.8 0 20 0 10.1 0 1.8 7.1.3 16.8c-.1.5.3 1.1.8 1.1.5.1 1.1-.3 1.1-.8C3.6 8.4 11.1 2 20 2c7.1 0 13.2 4.1 16.2 10.1l-.6-.4c-.5-.3-1.1-.2-1.4.3-.3.5-.2 1.1.3 1.4l2.9 1.9c.2.6.3 1.2.4 1.9.1.5.5.8 1 .8h.2c.5-.1.9-.6.8-1.1-.1-.8-.3-1.5-.5-2.2l.7-3.4c.1-.6-.2-1.2-.8-1.3zm-.3 12c-.5-.1-1.1.3-1.1.8C36.4 31.6 28.9 38 20 38c-7.1 0-13.2-4.1-16.2-10.1l.6.4c.5.3 1.1.2 1.4-.3.3-.5.2-1.1-.3-1.4l-2.9-1.9c-.2-.6-.3-1.2-.4-1.9-.1-.5-.6-.9-1.1-.8-.5.1-.9.6-.8 1.1.1.8.3 1.5.5 2.2l-.7 3.4c-.1.5.2 1.1.8 1.2h.2c.5 0 .9-.3 1-.8l.1-.4C5.3 35.5 12.2 40 20 40c9.9 0 18.2-7.1 19.7-16.8.1-.6-.3-1.1-.8-1.2z" fill="#31303E"/></g><defs><clipPath id="clip0"><path fill="#fff" d="M0 0h40v40H0z"/></clipPath></defs></svg>