<svg width="136" height="44" fill="none" xmlns="http://www.w3.org/2000/svg"><g clip-path="url(#clip0)" fill="#000"><path d="M56.298 14.119l4.418-4.994h-2.61l-3.802 4.336V9.125h-2.24V19.81h2.24v-4.85l3.967 4.85h2.65l-4.623-5.692zm10.994-5.652l-5.404 11.344h2.466l1.11-2.404h3.657l1.11 2.404h2.487L67.292 8.467zm1.336 7.172h-2.63l1.315-3.041 1.315 3.041zm14.714 4.172V9.125h-9.083V19.81h2.24v-8.713h4.603v8.713h2.24zm9.966 0h2.117V8.591l-7.562 7.007V9.125h-2.137v11.22l7.582-7.007v6.473zm6.843 0h2.199v-8.713h2.877V9.125h-7.932v1.973h2.856v8.713zm6.741 0l1.109-2.404h3.658l1.11 2.404h2.487L109.81 8.488l-5.384 11.323h2.466zm4.254-4.172h-2.631l1.315-3.041 1.316 3.041zm7.788-.513h4.994v4.685h2.178V9.125h-2.178v3.987h-4.994V9.125h-2.178V19.81h2.178v-4.685zM55.99 24.744l-4.275 9.31h-1.623v3.596h2.157v-1.685h7.501v1.685h2.138v-3.597h-1.624l-4.274-9.31zm0 4.15l1.91 5.16h-3.822l1.912-5.16zm16.336-2.26a5.452 5.452 0 00-1.787-1.15 6.114 6.114 0 00-2.24-.412c-.802 0-1.542.144-2.24.411a5.246 5.246 0 00-1.788 1.151 5.389 5.389 0 00-1.192 1.747c-.288.678-.411 1.418-.411 2.24 0 .802.144 1.542.411 2.24a5.194 5.194 0 001.171 1.788c.514.514 1.11.904 1.788 1.172.678.287 1.439.41 2.26.41.823 0 1.583-.143 2.261-.41a5.861 5.861 0 001.788-1.172 5.195 5.195 0 001.171-1.788c.288-.698.411-1.438.411-2.22 0-.821-.143-1.561-.41-2.24a4.98 4.98 0 00-1.193-1.767zm-.945 5.405c-.164.432-.39.802-.678 1.11a3.225 3.225 0 01-1.048.74 3.6 3.6 0 01-1.336.267c-.472 0-.945-.082-1.335-.267a2.71 2.71 0 01-1.049-.74 3.134 3.134 0 01-.678-1.13 3.92 3.92 0 01-.246-1.398c0-.514.082-.986.246-1.397.165-.432.39-.802.678-1.11a3.224 3.224 0 011.049-.74 3.626 3.626 0 011.356-.267c.493 0 .945.082 1.356.267.411.165.76.411 1.048.74.288.308.514.699.678 1.13.144.432.226.904.226 1.398a4.44 4.44 0 01-.267 1.397zm9.659-6.967c-.822 0-1.582.144-2.281.411a5.615 5.615 0 00-1.808 1.13 5.177 5.177 0 00-1.192 1.747c-.288.679-.411 1.44-.411 2.261 0 .822.144 1.583.41 2.26.288.679.679 1.275 1.193 1.748.513.493 1.11.863 1.808 1.13a6.339 6.339 0 002.281.411c.78 0 1.438-.103 1.932-.288a4.854 4.854 0 001.418-.801v-2.466a4.784 4.784 0 01-.822.74c-.309.226-.678.39-1.069.534-.39.144-.863.205-1.377.205a3.64 3.64 0 01-1.315-.246 3.48 3.48 0 01-1.09-.678c-.307-.309-.575-.658-.739-1.09-.185-.431-.267-.904-.267-1.438 0-.535.082-1.007.267-1.439.185-.431.432-.801.74-1.09a2.867 2.867 0 011.089-.677 3.483 3.483 0 011.315-.247c.514 0 .966.062 1.377.185.411.123.76.308 1.069.534.308.226.596.473.822.74v-2.466a4.915 4.915 0 00-1.418-.822c-.493-.205-1.151-.288-1.932-.288zm12.864.206h-7.932v1.993h2.836v8.714h2.219v-8.714h2.877v-1.993zM93.7 35.985h2.465l1.11-2.404h3.658l1.11 2.404h2.486l-5.446-11.324L93.7 35.985zm6.74-4.172h-2.63l1.314-3.041 1.316 3.041zm12.145-1.151a5.383 5.383 0 00-.987-.452c.473-.205.863-.473 1.151-.822a2.17 2.17 0 00.473-1.397c0-.453-.082-.863-.267-1.192a2.645 2.645 0 00-.74-.843 3.804 3.804 0 00-1.13-.514 6.337 6.337 0 00-1.46-.164h-3.555v10.687h3.782c.801 0 1.5-.103 2.096-.33a2.839 2.839 0 001.397-1.006c.329-.453.514-1.028.514-1.727 0-.534-.103-.986-.329-1.356a3.507 3.507 0 00-.945-.884zm-3.186-3.637c.473 0 .864.103 1.131.329.267.226.411.534.411.924 0 .268-.062.494-.185.678a1.29 1.29 0 01-.535.453c-.226.102-.493.143-.822.143h-1.171v-2.527h1.171zm1.891 6.514a1.42 1.42 0 01-.678.514 2.92 2.92 0 01-.987.165h-1.397v-3.083h1.397c.268 0 .535.02.761.082.226.062.431.144.616.267.165.124.309.267.411.452.103.185.144.411.144.679-.02.39-.103.698-.267.924zm13.049-8.261h-2.61l-3.802 4.336v-4.336h-2.239v10.707h2.239v-4.85l3.967 4.85h2.671l-4.644-5.693 4.418-5.014zm9.227 10.707h2.487l-5.446-11.324-5.405 11.324h2.466l1.11-2.404h3.658l1.13 2.404zm-1.623-4.172h-2.631l1.315-3.041 1.316 3.041zM39.086 6.269a3.138 3.138 0 00-2.507-3.021L20.365.083a4.644 4.644 0 00-1.685 0L2.507 3.248A3.12 3.12 0 000 6.268C-.041 9.31.06 17.244 1.685 24.889c.925 4.377 4.13 8.899 9.515 13.46a54.625 54.625 0 005.363 4.008c2.281 1.5 2.63 1.645 2.918 1.645h.062c.288 0 .658-.124 2.939-1.645a61.135 61.135 0 005.363-4.007c5.384-4.562 8.59-9.084 9.535-13.461 1.644-7.645 1.747-15.578 1.706-18.62zm-3.884 18.126c-1.788 8.364-13.152 15.66-15.68 17.18-2.527-1.52-13.85-8.795-15.638-17.18C2.3 16.975 2.199 9.248 2.24 6.269a.88.88 0 01.698-.843l16.173-3.165c.144-.02.267-.041.411-.041.144 0 .268.02.411.041l16.214 3.186a.858.858 0 01.699.842c.041 2.98-.062 10.707-1.644 18.106z"/><path fill-rule="evenodd" clip-rule="evenodd" d="M19.873 10.399c.082-1.418.102-2.466.04-2.877-.081-.555-1.273-.514-2.589.102-1.089.514-.986 1.562-.986 1.891.02.473.041 1.172.041 2.014-3.124 1.48-5.857 3.864-6.966 4.974-.206.226-.411.534-.206.678.39.267 1.377.39 1.665.39 1.726.062 2.774-1.274 5.528-2.671.41-.206 1.726-.822 2.527-1.09.288-.102.514-.164.7-.226 3.102-.966 7.746-.205 7.5 4.234-.267 5.138-4.953 8.159-9.474 9.947.39-1.727.802-3.782 1.09-6.042.308-2.425.595-5.118.8-7.502-1.191.124-2.26.966-3.184 1.747-.021 2.014-.103 4.172-.288 6.042a309.27 309.27 0 01-.699 6.556c-.596.185-1.192.37-1.747.534-1.89.535-2.014 2.158-1.418 2.055a51.638 51.638 0 002.898-.575c-.041.267-.082.534-.103.802-.082.637-.329 1.87.473 1.808.493-.061.822-.473 1.007-1.069.144-.493.35-1.171.575-1.993 4.213-1.13 7.522-2.733 10.234-5.158 5.713-5.035 6.617-17.181-7.418-14.571z"/></g><defs><clipPath id="clip0"><path fill="#fff" d="M0 0h136v44H0z"/></clipPath></defs></svg>