<svg width="48" height="48" fill="none" xmlns="http://www.w3.org/2000/svg"><circle cx="24" cy="24" r="23" fill="#fff" stroke="#E6E9EC" stroke-width="2"/><path d="M30 22.727C30 27.182 24 31 24 31s-6-3.818-6-8.273c0-1.519.632-2.975 1.757-4.05A6.148 6.148 0 0124 17a6.15 6.15 0 014.243 1.677A5.598 5.598 0 0130 22.727z" stroke="#C5691C" stroke-width="2" stroke-linecap="round" stroke-linejoin="round"/><path d="M24 24.636c1.105 0 2-.854 2-1.909 0-1.054-.895-1.909-2-1.909s-2 .855-2 1.91c0 1.054.895 1.908 2 1.908z" stroke="#C5691C" stroke-width="2" stroke-linecap="round" stroke-linejoin="round"/></svg>