<svg width="18" height="22" fill="none" xmlns="http://www.w3.org/2000/svg"><path d="M17 9.182C17 15.546 9 21 9 21S1 15.546 1 9.182a8.28 8.28 0 012.343-5.786A7.91 7.91 0 019 1c2.122 0 4.157.862 5.657 2.396A8.277 8.277 0 0117 9.182z" fill="#F8FCF4"/><path d="M9 11.91c1.473 0 2.667-1.222 2.667-2.728 0-1.506-1.194-2.727-2.667-2.727-1.473 0-2.667 1.22-2.667 2.727 0 1.506 1.194 2.727 2.667 2.727z" fill="#F8FCF4"/><path d="M17 9.182C17 15.546 9 21 9 21S1 15.546 1 9.182a8.28 8.28 0 012.343-5.786A7.91 7.91 0 019 1c2.122 0 4.157.862 5.657 2.396A8.277 8.277 0 0117 9.182z" stroke="#959595" stroke-width="2" stroke-linecap="round" stroke-linejoin="round"/><path d="M9 11.91c1.473 0 2.667-1.222 2.667-2.728 0-1.506-1.194-2.727-2.667-2.727-1.473 0-2.667 1.22-2.667 2.727 0 1.506 1.194 2.727 2.667 2.727z" stroke="#959595" stroke-width="2" stroke-linecap="round" stroke-linejoin="round"/></svg>