<svg width="40" height="40" fill="none" xmlns="http://www.w3.org/2000/svg"><path d="M39 7H15c-.6 0-1 .4-1 1v24c0 .6.4 1 1 1h24c.6 0 1-.4 1-1V8c0-.6-.4-1-1-1zM25 9h4v3.1l-1.4-1c-.3-.2-.8-.2-1.1 0l-1.4 1V9H25zm13 22H16V9h7v5c0 .4.2.7.5.9.3.2.7.2 1 0l2.4-1.6 2.4 1.6c.2.1.4.2.6.2.2 0 .3 0 .5-.1.3-.2.5-.5.5-.9V9h7v22h.1z" fill="#C5691C"/><path d="M9 13H1c-.6 0-1 .4-1 1s.4 1 1 1h8c.6 0 1-.4 1-1s-.4-1-1-1zm0 6H3c-.6 0-1 .4-1 1s.4 1 1 1h6c.6 0 1-.4 1-1s-.4-1-1-1zm0 6H5c-.6 0-1 .4-1 1s.4 1 1 1h4c.6 0 1-.4 1-1s-.4-1-1-1z" fill="#31303E"/></svg>