<svg width="553" height="414" fill="none" xmlns="http://www.w3.org/2000/svg"><g clip-path="url(#clip0)"><path d="M211.927 161.086L13.502 199.049l-23.407 79.11 210.71-41.42s63.405-56.743 11.122-75.653z" fill="url(#paint0_linear)"/><path d="M297.829 346.58L186.8 291.829 21.353 317.024l10.55 71.846 265.926-42.29z" fill="url(#paint1_linear)"/><path d="M175.279 234.192l-18.612 62.904L4.642 320.631l20.095-58.398 150.542-28.041z" fill="url(#paint2_linear)"/></g><path d="M125.85 167.295h76.463l-4.848 21.481-36.261 7.567-35.354-29.048z" fill="url(#paint3_linear)"/><path d="M125.85 167.295h76.463l-4.848 21.481-36.261 7.567-35.354-29.048z" fill="url(#paint4_linear)"/><path d="M338.528 261.652l-1.103-9.105 4.848-4.848s52.972-2.522 57.19-19.785l8.079 5.439-14.898 15.568-20.574 7.41-33.542 5.321z" fill="#2E353D"/><path d="M338.529 261.652c22.742-3.705 58.648-11.706 62.392-25.619 3.548-13.243-23.372-24.319-32.95-27.787-1.971-.71-4.138-.079-5.439 1.576l-36.103 48.598-10.406-2.798 43.868-56.678c1.774-2.246 4.769-3.114 7.45-2.128 13.124 4.769 49.109 19.313 44.774 38.941-3.981 18.012-45.484 23.885-73.98 27.511l.394-1.616z" fill="url(#paint5_linear)"/><path d="M367.301 196.816c-2.68-.985-5.676-.118-7.449 2.128l-40.912 52.855-1.813-.473 43.868-56.638c1.773-2.247 4.729-3.075 7.449-2.129 16.436 5.755 47.928 19.786 43.868 41.582 2.049-18.84-32.28-32.674-45.011-37.325z" fill="#607F93"/><path d="M132.394 188.302c1.3.473 30.782 2.483 47.375-9.104l-5.124 16.79-34.526.907-7.725-8.593z" fill="url(#paint6_linear)"/><path d="M325.089 187.829c23.964-6.976 75.714-14.307 93.254-15.174l-28.221 14.583-50.056 15.805-14.977-15.214z" fill="url(#paint7_linear)"/><path d="M302.504 171.276a31.26 31.26 0 003.272-10.524c2.325-17.697-10.09-33.935-27.787-36.261-17.697-2.325-33.936 10.09-36.261 27.787a32 32 0 00.433 10.997l60.343 8.001z" fill="#EF5E42"/><path d="M292.46 169.996c7.549-4.76 9.81-14.739 5.05-22.289-4.761-7.549-14.74-9.81-22.29-5.05-7.549 4.761-9.81 14.74-5.05 22.289 4.761 7.55 14.74 9.811 22.29 5.05z" fill="#C44028"/><path d="M296.911 156.661c.184-5.46-4.094-10.036-9.554-10.22-5.46-.184-10.036 4.093-10.22 9.554-.184 5.46 4.093 10.036 9.554 10.22 5.46.184 10.036-4.094 10.22-9.554z" fill="#0B706D"/><path d="M296.789 157.599c.119-.985.119-1.971-.039-2.917-5.045.986-14.307 3.153-19.037 4.888 1.182 3.389 4.217 6.03 8.001 6.503 5.4.749 10.366-3.035 11.075-8.474z" fill="#fff"/><path d="M287.014 167.177c-.473 0-.946-.04-1.419-.079-5.952-.789-10.13-6.267-9.341-12.179.709-5.361 5.321-9.42 10.76-9.42.473 0 .946.039 1.419.079 5.951.788 10.129 6.266 9.341 12.179-.71 5.36-5.321 9.42-10.76 9.42zm0-19.747c-4.415 0-8.198 3.311-8.79 7.725-.63 4.848 2.799 9.341 7.647 9.972.394.039.788.079 1.182.079 4.415 0 8.198-3.311 8.789-7.725.631-4.848-2.798-9.341-7.646-9.972-.394-.04-.788-.079-1.182-.079z" fill="#66CCC7"/><path d="M213.626 115.465c7.055 5.006 27.826 19.904 55.81 51.83l-36.537-2.05-19.273-49.78z" fill="url(#paint8_linear)"/><path d="M352.993 220.031c3.311-4.612 28.496-24.516 57.15-30.783l8.199-16.593s-71.261 17.106-88.879 26.132l5.203 23.648 18.327-2.404zm-222.137-32.398c9.381 4.69 33.936 5.517 49.347-1.774l-3.705 21.362c-4.493 2.129-28.023-.315-45.405-6.385l-.237-13.203zm81.746-73.153c5.557 5.36 21.717 22.348 41.621 49.622l-64.836 17.737s9.223-23.136.788-42.252l22.427-25.107z" fill="#2E353D"/><path d="M345.386 216.05s-41.227 16.317-90.495 12.337c-49.267-3.981-87.972-26.723-87.972-26.723-.039-17.342 23.53-43.04 92.308-38.113 75.123 5.399 89.824 36.655 86.159 52.499z" fill="url(#paint9_linear)"/><path d="M345.387 216.05c-1.497 18.564-42.646 30.388-91.953 26.407-49.307-3.941-87.617-22.19-86.553-40.754 1.025-18.406 42.291-30.27 91.953-26.407 49.307 3.784 88.012 22.19 86.553 40.754z" fill="url(#paint10_linear)"/><path d="M343.337 221.489c-1.459 18.131-41.7 29.718-89.904 25.856-48.203-3.863-86.08-21.717-84.622-39.887 1.459-18.131 41.7-29.719 89.904-25.856 48.203 3.863 86.08 21.757 84.622 39.887z" fill="url(#paint11_linear)"/><path d="M301.756 354.354c-.157 0-.276 0-.433-.04-1.301-.236-2.129-1.497-1.892-2.759l22.072-117.099c.236-1.3 1.497-2.128 2.759-1.892 1.3.237 2.128 1.498 1.892 2.759l-22.072 117.1c-.197 1.143-1.222 1.931-2.326 1.931z" fill="#2E353D"/><path d="M297.065 356.522c-.158 0-.276 0-.434-.04-1.3-.236-2.128-1.498-1.892-2.798l22.072-116.705c.237-1.301 1.498-2.129 2.799-1.892 1.3.236 2.128 1.498 1.892 2.798L299.43 354.59a2.405 2.405 0 01-2.365 1.932z" fill="#526A7F"/><path d="M321.305 208.561c-5.872 0-12.809-1.379-20.81-4.138-.513-.197-.789-.749-.591-1.261.197-.513.748-.789 1.261-.592 26.683 9.223 33.541.276 34.999-2.68 2.681-5.399-.039-12.612-6.306-16.83-9.617-6.424-26.88-5.281-46.587 17.185a.99.99 0 01-1.38.079.99.99 0 01-.078-1.38c20.574-23.451 38.901-24.436 49.188-17.539 7.095 4.769 10.09 13.086 6.977 19.352-1.38 2.799-4.612 6.346-11.943 7.45a30.745 30.745 0 01-4.73.354z" fill="#66CCC7"/><path d="M286.108 205.999c-.276 0-.512-.118-.709-.276-13.519-13.716-22.624-26.998-27.117-39.453-4.769-13.125-3.153-22.032-.985-27.235 3.074-7.331 9.42-11.903 16.514-11.903 5.952 0 11.627 3.232 15.608 8.907 4.296 6.149 6.622 14.978 6.622 25.541.039 12.455-2.996 27.195-8.987 43.749a1.033 1.033 0 01-.709.631c-.118.039-.197.039-.237.039zm-12.336-76.896c-6.307 0-11.943 4.099-14.702 10.681-2.483 5.912-7.804 27.826 26.605 63.378 10.287-29.167 11.075-53.17 2.089-66.019-3.666-5.163-8.632-8.04-13.992-8.04z" fill="#66CCC7"/><path d="M345.388 329.602l-134.796-28.023 18.091-117.218 125.731 31.374-9.026 113.867z" fill="#FA9745"/><path d="M292.612 214.434c-.316.276-.71.631-1.183 1.104-18.8 17.578-43.355 29.402-72.995 35.196l-.315 2.05h.197c19.353-3.744 36.774-10.09 51.83-18.879 12.1-7.095 19.47-13.953 22.623-16.909.473-.434.867-.788 1.143-1.064a.989.989 0 00.079-1.38c-.315-.433-.946-.473-1.379-.118z" fill="url(#paint12_linear)"/><path d="M272.589 359.635l-119.385-21.48 57.387-36.577 134.796 28.024-72.798 30.033z" fill="#E68434"/><path d="M238.457 300.593l-21.047-3.902 3.469-21.126 21.126 3.942-3.548 21.086zm4.414-24.988l-21.087-3.942 3.508-21.126 21.126 3.942-3.547 21.126zm49.189 33.541c-.473 0-.907-.355-.986-.828-.157-.354-1.813-2.404-20.692-5.202-7.016-1.025-15.371-2.05-24.87-2.956-.473-.04-.749-.079-.867-.079-.552-.079-.946-.552-.867-1.104.078-.552.551-.946 1.103-.867.079 0 .394.04.828.079 9.696.946 18.249 1.971 25.383 3.035 6.109.906 10.996 1.852 14.543 2.759 6.188 1.616 7.213 2.916 7.41 4.02.079.552-.276 1.025-.828 1.143h-.157zm-6.661-14.583h-.394c-.907-.079-1.656-.513-2.05-1.183-.67.119-1.261.158-1.655.119-.67-.04-1.222-.355-1.577-.867-.354-.513-.473-1.183-.433-1.853a12.317 12.317 0 01-7.844 1.104c-2.128-.394-3.153-1.34-3.626-2.286-1.852.749-3.626 1.222-5.084 1.34a.98.98 0 01-1.064-.907.978.978 0 01.906-1.064c1.419-.118 3.114-.631 4.848-1.34.079-2.72 2.444-5.952 5.085-7.962 2.286-1.773 4.453-2.325 5.912-1.537.985.513 1.419 1.419 1.182 2.483-.512 2.562-5.203 5.991-9.932 8.198.354.552 1.064.946 2.167 1.143 4.848.868 8.199-1.891 8.238-1.931.355-.276.828-.315 1.182-.079.355.237.513.71.395 1.104-.355 1.025-.395 2.168-.237 2.404h.04c.394 0 .827-.039 1.261-.079.157-.749.552-1.497 1.182-1.892.67-.433 1.459-.394 2.089.079.631.473.867 1.143.631 1.813-.197.473-.631.867-1.183 1.183.749 0 1.892-.355 3.114-.71 2.72-.827 6.149-1.892 8.986.119.434.315.552.945.237 1.379-.315.434-.946.552-1.38.237-2.049-1.459-4.847-.592-7.291.157-1.419.473-2.641.828-3.705.828zm-8.514-14.78c-.709 0-1.852.433-3.231 1.497-2.011 1.537-3.587 3.705-4.1 5.4 4.021-2.01 7.765-4.848 8.08-6.424.04-.158.04-.198-.197-.355a1.252 1.252 0 00-.552-.118zm-13.046 18.564a1.2 1.2 0 01-.946-.434c-.591-.67-.197-1.498.197-2.365a1.86 1.86 0 01.197-.394c-.788.118-1.97.434-2.798.631-1.695.433-3.272.827-4.257.788-.946-.039-1.419-.473-1.655-.828-.473-.749-.276-1.695.039-2.483-.276.04-.552.118-.828.158-1.655.315-3.902.749-5.675.591-2.01-.197-2.247-1.379-2.247-1.892 0-1.458 1.853-3.192 2.917-3.311.552-.078 1.025.316 1.103.867.079.513-.315.986-.827 1.104-.355.118-1.025.828-1.183 1.222.079.039.237.079.434.079 1.498.157 3.626-.276 5.124-.552 1.852-.355 2.601-.512 3.153-.039.236.197.394.512.394.827 0 .355-.118.71-.315 1.183-.119.276-.316.827-.355 1.143h.039c.71 0 2.286-.394 3.705-.749 3.035-.749 4.375-1.064 5.164-.394.315.276.433.67.394 1.103-.079.591-.394 1.222-.631 1.774 0 .039-.039.079-.039.118a.998.998 0 01.354.513.964.964 0 01-.67 1.221c-.354.079-.591.119-.788.119zm5.046-1.695c-.394 0-.749-.197-.906-.592-.237-.512 0-1.064.472-1.3.552-.237 3.43-1.459 4.494.197.315.473.157 1.064-.276 1.379-.434.276-1.025.197-1.34-.236-.276-.118-1.301.118-2.089.473-.079.079-.197.079-.355.079z" fill="#fff"/><path d="M228.682 184.361l-55.18 47.573-20.298 106.221 57.387-36.576 18.091-117.218z" fill="#C5691C"/><path d="M328.282 327.001c-.079 0-.158 0-.237-.04a.95.95 0 01-.709-1.143c2.286-9.104 4.69-19.746 5.163-29.56 1.459-30.428-16.278-54.549-30.546-73.941-5.754-7.804-10.72-14.544-13.755-20.732a.932.932 0 01.433-1.261.933.933 0 011.262.433c2.956 6.031 7.882 12.731 13.558 20.456 14.426 19.629 32.398 44.026 30.901 75.124-.473 9.971-2.917 20.731-5.203 29.915-.039.433-.433.749-.867.749z" fill="url(#paint13_linear)"/><path d="M331.08 393.295c-.473 0-.867-.355-.985-.828-4.848-27.826-.828-46.114 3.074-63.772 2.207-10.05 4.532-20.456 5.084-32.438 1.419-29.56-18.485-53.918-34.487-73.467-7.055-8.632-13.125-16.081-16.396-22.703a.978.978 0 01.433-1.301.98.98 0 011.301.434c3.153 6.425 9.183 13.795 16.16 22.348 16.199 19.825 36.379 44.538 34.921 74.808-.592 12.179-2.917 22.663-5.124 32.792-3.863 17.461-7.844 35.552-3.075 63.023.079.552-.275 1.064-.788 1.143 0-.039-.079-.039-.118-.039z" fill="#3AAFAC"/><path d="M227.5 352.501a.945.945 0 01-.867-.551 1 1 0 01.433-1.341c12.81-6.621 47.021-31.964 51.751-35.551.434-.315 1.064-.236 1.38.197.315.434.236 1.064-.197 1.38-.355.275-37.838 28.338-52.027 35.709-.197.118-.355.157-.473.157z" fill="#0B706D"/><path d="M216.819 350.57a.97.97 0 01-.946-.709c-.158-.513.157-1.065.709-1.222 42.646-11.588 70.315-22.663 75.951-30.467.315-.434.946-.552 1.379-.237.434.316.552.946.237 1.38-5.952 8.237-33.305 19.352-77.015 31.216-.158.039-.237.039-.315.039z" fill="#0B706D"/><path d="M279.368 316.871h-.157a.973.973 0 01-.828-1.104c3.074-21.086 9.026-49.188 13.834-71.733 4.296-20.259 8.001-37.719 7.568-40.636a.953.953 0 01.828-1.104.953.953 0 011.103.828c.473 3.114-2.444 17.027-7.607 41.345-4.769 22.545-10.72 50.608-13.795 71.616-.039.433-.433.788-.946.788z" fill="#3AAFAC"/><path d="M293.281 319.748c-.078 0-.157 0-.197-.039a.998.998 0 01-.749-1.182c10.209-46.548 5.44-85.095-15.056-121.356a.972.972 0 01.355-1.34.972.972 0 011.34.354c9.893 17.5 16.042 35.197 18.801 54.155 3.113 21.244 1.931 43.671-3.508 68.581-.118.512-.513.827-.986.827z" fill="#3AAFAC"/><path d="M164.398 279.625l48.322 7.016 15.963-102.28-55.18 47.573-9.105 47.691z" fill="#C5691C"/><path d="M166.92 333.228c-.157 0-.315 0-.433-.039-1.301-.237-2.129-1.498-1.892-2.799l22.466-116.863c.828-4.256 3.39-8.749 6.779-11.745 5.321-4.73 12.219-7.37 21.008-8.119a2.325 2.325 0 012.049.867l-4.887 4.257c-6.188.985-11.115 3.153-14.977 6.582-2.562 2.286-4.612 5.833-5.242 9.065l-22.466 116.863c-.316 1.143-1.301 1.931-2.405 1.931z" fill="#526A7F"/><path d="M170.585 330.705c-.157 0-.275 0-.433-.039-1.301-.236-2.128-1.498-1.892-2.759l21.835-115.798c.868-4.494 3.351-8.396 6.977-11.036 3.626-2.602 8.907-5.676 17.894-6.74.63-.079 1.182.118 1.655.433l-5.991 5.164c-5.045 1.261-8.395 3.271-10.799 5.005-2.641 1.892-4.454 4.769-5.085 8.041l-21.835 115.798c-.197 1.143-1.222 1.931-2.326 1.931z" fill="#2E353D"/><path d="M201.092 340.598c-.157 0-.315 0-.512-.039l-34.172-7.371c-1.301-.275-2.089-1.537-1.813-2.837.276-1.301 1.537-2.089 2.838-1.813l34.172 7.37c1.3.276 2.089 1.537 1.813 2.838-.276 1.064-1.261 1.852-2.326 1.852z" fill="#526A7F"/><path d="M204.757 338.234c-.157 0-.354 0-.512-.04l-34.172-7.567c-1.301-.276-2.089-1.537-1.813-2.838.276-1.301 1.537-2.089 2.838-1.813l34.172 7.528c1.3.276 2.089 1.537 1.813 2.838-.276 1.143-1.261 1.892-2.326 1.892z" fill="#2E353D"/><path d="M297.066 356.522c-.158 0-.315 0-.473-.04l-34.172-6.976c-1.301-.276-2.128-1.537-1.852-2.798.276-1.301 1.537-2.129 2.798-1.853l34.172 6.976c1.301.276 2.128 1.537 1.853 2.799-.198 1.103-1.222 1.892-2.326 1.892z" fill="#526A7F"/><path d="M301.755 354.354c-.158 0-.315 0-.473-.04l-35.197-7.331c-1.3-.275-2.128-1.537-1.852-2.798.276-1.301 1.537-2.128 2.798-1.852l35.157 7.331c1.301.275 2.129 1.537 1.853 2.798-.197 1.104-1.182 1.892-2.286 1.892z" fill="#2E353D"/><path d="M88.21 307.767c-.433 0-.867-.316-.945-.749-1.616-6.858-.631-13.165 2.956-18.722 12.533-19.668 54.746-28.418 99.441-37.719 49.662-10.327 101.019-20.969 110.241-47.376.198-.512.749-.788 1.262-.591.512.197.788.749.591 1.261-9.617 27.472-61.525 38.232-111.7 48.676-44.261 9.184-86.08 17.894-98.18 36.853-3.31 5.163-4.178 10.799-2.68 17.224a.986.986 0 01-.749 1.182c-.079-.079-.158-.039-.236-.039z" fill="#3AAFAC"/><path d="M442.107 152.396h86.672l-1.577-18.721-50.489-21.087-21.284-3.744-13.322 43.552z" fill="url(#paint14_linear)"/><path d="M523.025 142.228c3.705 10.838-25.934 38.625-87.105 35.866l3.311 16.712 44.065-7.292 36.3-16.948 11.115-21.875-7.686-6.463z" fill="#2E353D"/><path d="M381.766 100.448v5.243l2.364-.158-2.364-5.085z" fill="#607F93"/><path d="M434.384 196.303c27.235-.591 111.581-13.676 103.107-56.677-5.675-28.772-80.523-51.002-153.439-36.931-2.719.512-2.877 3.468-1.221 4.809 23.766 19.312 36.103 50.883 35.472 66.531l15.293-1.577c.512-12.573-16.278-42.804-27.117-56.362-1.064-1.34-.236-3.311 1.458-3.469 50.214-4.375 111.7 10.09 116.272 33.226 6.818 34.567-61.013 45.051-82.888 45.524l-6.937 4.926z" fill="url(#paint15_linear)"/><path d="M382.831 102.971c.039.039.118.079.157.118.316-.197.67-.315 1.064-.394 72.916-14.11 147.764 8.159 153.439 36.931a39.85 39.85 0 01.513 3.626c-.237-3.508-.591-5.794-1.301-8.592-7.37-28.772-79.735-50.608-152.651-36.498-2.719.513-2.877 3.469-1.221 4.809zm49.738 119.425h-.118c-1.301-.079-2.325-1.183-2.247-2.483l3.627-73.153c.078-1.301 1.182-2.325 2.483-2.246 1.3.078 2.325 1.182 2.246 2.483l-3.626 73.152c-.039 1.261-1.103 2.247-2.365 2.247z" fill="#607F93"/><path d="M460.108 184.206c.16-7.313-11.531-13.499-26.112-13.818-14.582-.319-26.532 5.35-26.692 12.663-.16 7.312 11.531 13.499 26.113 13.818 14.581.319 26.532-5.351 26.691-12.663z" fill="#fff"/><path d="M459.855 196.412c.16-7.312-11.531-13.499-26.113-13.817-14.581-.319-26.532 5.35-26.692 12.663-.16 7.312 11.531 13.499 26.113 13.817 14.581.319 26.532-5.35 26.692-12.663z" fill="#B8CCBC"/><path d="M434.974 227.519a16.755 16.755 0 01-3.153.158c-9.184-.434-16.278-8.277-15.805-17.46l2.207-37.207c.433-9.184 8.277-16.278 17.46-15.805 9.184.433 16.278 8.277 15.805 17.46l-2.207 37.207c-.434 8.08-6.582 14.544-14.307 15.647z" fill="#fff"/><path d="M416.883 192.717c9.853-2.917 25.619-.119 33.147 6.227l.71-12.376-25.541-.63-8.316 6.779z" fill="#607F93"/><path d="M433.752 182.627c-14.583-.316-26.565 5.36-26.723 12.652-.039 2.562 1.38 5.005 3.863 7.094-.197-.67-.316-1.3-.316-2.01.158-6.346 10.485-11.233 23.136-10.957 12.652.276 22.782 5.636 22.624 11.982 0 .552-.118 1.103-.276 1.655 2.365-1.931 3.705-4.178 3.784-6.621.197-7.331-11.509-13.48-26.092-13.795z" fill="#fff"/><path d="M433.989 170.409c6.74.157 12.888 1.537 17.5 3.744-11.864-7.725-30.901-6.228-32.32-5.912a17.901 17.901 0 00-.906 4.414c4.414-1.498 9.853-2.365 15.726-2.246zm2.208-19.234a4.297 4.297 0 10-.002-8.594 4.297 4.297 0 00.002 8.594z" fill="#607F93"/><path d="M433.555 170.408c-.276-3.429-1.498-7.804-3.35-12.612a16.688 16.688 0 00-11.903 14.307v.552c4.296-1.498 9.577-2.325 15.253-2.247z" fill="url(#paint16_linear)"/><path d="M545.373 142.227v-1.379c0-.907-.119-2.207-.355-3.863a35.138 35.138 0 00-1.498-5.912 36.75 36.75 0 00-3.429-7.173l-.591-.946c-.079-.158-.197-.315-.315-.473a3.246 3.246 0 01-.316-.473c-.433-.631-.906-1.261-1.34-1.892l-1.537-1.892c-.236-.315-.552-.63-.828-.946-.276-.315-.551-.63-.867-.946-2.325-2.443-5.005-4.887-8.04-7.055-.394-.276-.749-.552-1.143-.828-.394-.275-.789-.512-1.183-.788-.788-.512-1.616-1.025-2.404-1.576-.828-.513-1.695-.946-2.522-1.459-.828-.473-1.695-.985-2.602-1.379-.867-.434-1.773-.867-2.64-1.34l-.671-.316-.67-.315-1.379-.591c-.907-.394-1.852-.788-2.759-1.183l-2.798-1.064a82.108 82.108 0 00-2.838-1.025c-.946-.315-1.892-.63-2.877-.906a62.89 62.89 0 00-2.878-.907c-.946-.275-1.931-.512-2.877-.788-.946-.276-1.892-.512-2.838-.788-.946-.237-1.892-.434-2.838-.67-.945-.237-1.891-.434-2.837-.67a18.32 18.32 0 00-1.419-.316 14.24 14.24 0 01-1.38-.275c-1.852-.355-3.705-.71-5.478-1.025a778.98 778.98 0 01-5.282-.828c-.867-.118-1.695-.276-2.522-.394-.828-.118-1.656-.197-2.483-.315-1.616-.197-3.193-.355-4.691-.552-1.497-.197-2.956-.276-4.335-.434-1.38-.118-2.68-.236-3.902-.315-2.444-.236-4.612-.315-6.385-.434-3.548-.197-5.558-.315-5.558-.315s2.01.04 5.558.158c1.773.079 3.902.079 6.385.236 1.222.08 2.522.158 3.941.237 1.38.079 2.838.157 4.336.315 1.498.118 3.074.276 4.729.434l2.484.236c.827.118 1.694.197 2.561.316 1.735.236 3.508.433 5.321.67 1.813.275 3.666.59 5.518.906l1.419.236c.473.08.946.198 1.419.276.946.197 1.892.395 2.877.592.946.197 1.932.394 2.878.59.946.237 1.931.474 2.916.71.986.237 1.931.473 2.917.71.985.236 1.931.552 2.917.828.985.275 1.931.59 2.916.867.986.315 1.931.67 2.877.985l2.878.985c.946.394 1.891.75 2.837 1.143l1.419.552.71.276.67.315c.906.434 1.852.867 2.759 1.262.906.394 1.813.906 2.68 1.379.867.473 1.774.946 2.641 1.419.827.512 1.695 1.025 2.522 1.537.394.276.828.512 1.222.788l1.182.828a56.956 56.956 0 018.553 7.134c.316.315.631.631.907.946.315.315.63.631.906.946.552.67 1.104 1.301 1.656 1.931.512.67.985 1.34 1.497 1.971l.355.473c.118.157.237.355.316.512.236.316.433.67.63.986a40.992 40.992 0 013.863 7.646 38.89 38.89 0 011.813 6.424c.355 1.813.473 3.272.512 4.297.04.512.04.906.04 1.143v.354c0 .907-.71 1.656-1.656 1.695-.906 0-1.655-.709-1.695-1.655.119.197.119.197.119.157zm-230.336-.946v-.354c0-.237 0-.631.04-1.143.039-.986.197-2.483.512-4.296a39.982 39.982 0 011.813-6.425c.907-2.404 2.207-5.005 3.863-7.646.197-.316.433-.67.63-.986.118-.157.237-.354.316-.512l.354-.473c.473-.67.986-1.301 1.498-1.971.552-.63 1.104-1.3 1.655-1.931.276-.355.592-.631.907-.946.315-.315.631-.63.906-.946 2.523-2.522 5.361-4.966 8.553-7.134l1.183-.827c.394-.276.827-.513 1.222-.789.827-.512 1.655-1.024 2.522-1.537.867-.473 1.734-.946 2.641-1.419a56.22 56.22 0 012.68-1.379 58.08 58.08 0 012.759-1.261l.67-.316.709-.276 1.419-.552c.946-.394 1.892-.748 2.838-1.143l2.877-.985c.946-.315 1.932-.67 2.878-.985.985-.276 1.931-.591 2.916-.867.986-.276 1.932-.591 2.917-.828.985-.236 1.971-.473 2.917-.71.985-.236 1.931-.472 2.916-.709a366.38 366.38 0 002.877-.591c.946-.197 1.932-.394 2.878-.591.473-.08.946-.197 1.419-.276.472-.08.945-.158 1.418-.237 1.892-.315 3.705-.59 5.518-.906 1.813-.237 3.587-.473 5.321-.67.867-.118 1.735-.197 2.562-.316l2.483-.236c1.616-.158 3.193-.276 4.73-.434 1.498-.157 2.956-.236 4.336-.315 1.379-.079 2.68-.158 3.941-.236 2.444-.158 4.611-.197 6.385-.237 3.547-.118 5.557-.158 5.557-.158s-2.01.119-5.557.316c-1.774.118-3.902.157-6.385.394-1.222.118-2.523.197-3.902.315-1.38.118-2.838.237-4.336.434-1.497.157-3.074.355-4.69.552-.828.118-1.655.197-2.483.315-.828.118-1.695.236-2.522.394-1.735.276-3.469.512-5.282.828-1.774.354-3.626.67-5.478 1.025a14.24 14.24 0 00-1.38.275c-.473.08-.946.197-1.419.316-.946.197-1.892.433-2.838.67-.946.236-1.892.433-2.838.67-.945.276-1.891.512-2.837.788-.946.276-1.932.512-2.878.788-.945.276-1.891.591-2.877.907-.946.315-1.892.63-2.877.906-.946.316-1.892.71-2.838 1.025l-2.798 1.064c-.907.394-1.853.789-2.759 1.183l-1.38.591-.67.315-.67.316a55.31 55.31 0 00-2.641 1.34c-.906.433-1.734.906-2.601 1.379-.828.473-1.695.946-2.522 1.458-.789.513-1.616 1.025-2.405 1.577-.394.276-.788.512-1.182.788-.394.276-.749.552-1.143.828a54.256 54.256 0 00-8.041 7.055c-.275.315-.591.631-.867.946-.276.315-.551.591-.827.946l-1.537 1.892c-.473.63-.907 1.301-1.341 1.892a3.264 3.264 0 00-.315.473c-.118.157-.197.315-.315.473l-.591.946c-1.498 2.522-2.641 4.966-3.429 7.173a35.041 35.041 0 00-1.498 5.912c-.276 1.655-.355 2.996-.355 3.863v1.379c0 .907-.709 1.656-1.655 1.695-.907 0-1.656-.71-1.695-1.655.118-.158.118-.158.118-.198z" fill="#fff"/><path d="M549.512 124.136s-.039-.236-.118-.67c0-.039-.04-.118-.04-.157 0-.04-.039-.119-.039-.158-.04-.118-.04-.237-.079-.355-.039-.236-.158-.591-.276-.946a18.04 18.04 0 00-1.103-2.601c-.237-.512-.552-1.025-.868-1.537-.315-.513-.67-1.104-1.064-1.656-.394-.591-.827-1.143-1.261-1.773-.473-.591-.946-1.222-1.458-1.813a43.302 43.302 0 00-3.508-3.705c-.631-.631-1.301-1.222-1.971-1.853-.709-.591-1.379-1.222-2.128-1.773-1.458-1.183-2.996-2.286-4.533-3.39-.788-.512-1.576-1.064-2.404-1.576-.394-.237-.788-.513-1.222-.75-.394-.236-.828-.472-1.222-.709-1.616-.946-3.271-1.813-4.848-2.64-.788-.395-1.616-.789-2.365-1.144-.788-.354-1.576-.709-2.325-1.024-.749-.316-1.498-.63-2.207-.946-.71-.316-1.419-.552-2.089-.828a23.478 23.478 0 00-1.931-.71c-.631-.236-1.222-.433-1.774-.63-1.104-.355-2.089-.67-2.877-.946-1.616-.473-2.523-.749-2.523-.749s.946.237 2.562.63c.828.198 1.813.474 2.956.79.552.157 1.183.354 1.813.511.631.197 1.301.395 1.971.631.67.237 1.419.434 2.128.71.749.275 1.498.551 2.286.827.789.316 1.577.591 2.365.907.788.355 1.616.67 2.444 1.025a115.39 115.39 0 015.045 2.404c.433.236.867.433 1.261.67.434.236.828.473 1.261.71.867.472 1.695.985 2.523 1.458 1.655 1.024 3.311 2.089 4.848 3.232.788.551 1.537 1.143 2.286 1.734.709.591 1.458 1.182 2.168 1.773a57.677 57.677 0 013.862 3.666 24.467 24.467 0 011.656 1.852c.512.631 1.024 1.222 1.458 1.813.473.592.867 1.183 1.261 1.735.355.591.749 1.143 1.025 1.655a22.247 22.247 0 011.458 2.917c.158.433.316.788.434 1.182.039.197.118.355.157.512.04.079.04.158.079.237 0 .079.04.118.04.158.118.433.157.67.157.67.197.906-.354 1.773-1.261 2.01-.906.197-1.774-.355-2.01-1.261.039-.079 0-.079 0-.119zm-202.471-13.873s-.197.118-.63.315c-.394.197-.986.552-1.695.985-.355.237-.749.473-1.182.789-.395.315-.868.63-1.341.985a48.243 48.243 0 00-2.995 2.562c-.552.473-1.064 1.025-1.616 1.576-.512.592-1.064 1.143-1.616 1.774a59.033 59.033 0 00-3.153 4.099c-1.025 1.458-1.931 3.074-2.838 4.73-.867 1.655-1.616 3.429-2.286 5.203-.67 1.773-1.182 3.626-1.616 5.399-.158.907-.394 1.813-.512 2.72-.079.433-.119.906-.197 1.34-.04.433-.079.906-.158 1.34-.039.236-.039.434-.079.67 0 .236-.039.434-.039.67-.04.434-.04.867-.079 1.301-.04.867-.039 1.695-.039 2.483.039.788.039 1.576.118 2.365.079.749.118 1.497.236 2.167.118.71.197 1.38.276 2.011a71.1 71.1 0 00.71 3.35c.118.473.236.906.315 1.3.473 1.577.749 2.444.749 2.444l.039.079c.276.867-.236 1.813-1.103 2.089-.868.276-1.813-.237-2.089-1.104 0-.039 0-.079-.04-.079 0 0-.236-.985-.67-2.68-.079-.433-.197-.906-.276-1.419-.118-.512-.236-1.064-.276-1.694-.078-.592-.197-1.222-.276-1.932-.078-.67-.118-1.379-.197-2.128-.039-.749-.078-1.537-.118-2.326v-2.483c.04-.867.079-1.734.158-2.64.039-.434.118-.907.157-1.34.04-.237.04-.473.079-.67.04-.237.079-.473.119-.671.078-.472.157-.906.236-1.379.079-.473.197-.946.276-1.38.158-.945.473-1.852.709-2.798.552-1.852 1.183-3.744 1.971-5.557.788-1.813 1.655-3.587 2.641-5.242.985-1.656 2.01-3.232 3.153-4.691a43.819 43.819 0 013.429-4.02c.552-.63 1.182-1.182 1.734-1.734.591-.512 1.143-1.064 1.695-1.498 1.104-.946 2.207-1.734 3.153-2.404.473-.315.946-.631 1.38-.907.433-.276.827-.512 1.221-.709.749-.394 1.341-.71 1.735-.907.591-.236.827-.354.827-.354z" fill="#fff"/><path d="M203.144 77.155l27.038-45.957 47.533 22.427 19.155 23.53h-93.726z" fill="url(#paint17_linear)"/><path d="M191.28 77.155L159.63 18.9l-56.835 19.037-16.987 33.778 14.189 5.439h91.283z" fill="url(#paint18_linear)"/><path d="M112.885 99.306c11.548-5.479 43.04-12.77 67.91-7.016l-10.523 6.582-57.387.434z" fill="url(#paint19_linear)"/><path d="M97.513 53.625c-1.143 18.485 20.732 32.24 20.692 36.97-.039 2.562-3.271 5.636-8.08 10.011l-12.218-9.223-12.14-29.363 11.746-8.395z" fill="url(#paint20_linear)"/><path d="M311.334 75.342v4.769l-3.311-.867 3.311-3.902zm-120.527 38.626s25.146-29.955 93.529-35.04c2.286-.157 3.508-2.72 2.247-4.611a9.521 9.521 0 01-.473-.67 2.799 2.799 0 01-1.774.749c-68.383 5.084-93.529 39.572-93.529 39.572z" fill="#607F93"/><path d="M213.864 111.485c15.213-11.312 43.592-25.068 92.228-26.014 4.1-.079 6.622-4.572 4.494-8.119-20.732-34.606-102.043-82.297-190.764-57.308-41.306 11.627-60.816 50.765-11.273 86.001a3.686 3.686 0 003.547.434c12.889-5.4 34.567-7.804 53.209-5.36l9.539-7.725c-28.733-2.917-50.174-.276-64.718 7.212-26.368-21.835-21.836-57.308 16.79-66.846 84.07-20.81 146.384 20.85 159.667 40.557 1.261 1.892.039 4.454-2.247 4.612-37.049 2.759-61.407 12.77-75.951 21.401l5.479 11.155z" fill="url(#paint21_linear)"/><path d="M119.822 20.044c88.721-24.989 170.032 22.702 190.764 57.308.079.157.197.315.276.512.709-1.537.709-3.35-.276-5.005C289.854 38.253 208.543-9.477 119.822 15.55c-24.949 7.015-39.926 23.963-40.596 44.262 1.3-18.17 17.539-33.266 40.596-39.77z" fill="#607F93"/><path d="M185.17 144.04c-.157 0-.315 0-.433-.039-1.301-.236-2.129-1.498-1.892-2.798l13.677-71.931c.236-1.3 1.497-2.128 2.798-1.892 1.301.237 2.128 1.498 1.892 2.799l-13.677 71.93c-.276 1.143-1.261 1.931-2.365 1.931z" fill="#607F93"/><path d="M217.374 110.037c1.17-7.22-9.553-14.963-23.949-17.295-14.396-2.332-27.015 1.63-28.184 8.85-1.17 7.219 9.553 14.962 23.949 17.294 14.396 2.332 27.015-1.63 28.184-8.849z" fill="#fff"/><path d="M215.433 122.063c1.169-7.219-9.553-14.963-23.949-17.295-14.397-2.332-27.015 1.631-28.185 8.85-1.169 7.22 9.553 14.963 23.949 17.295 14.397 2.332 27.015-1.63 28.185-8.85z" fill="#B8CCBC"/><path d="M186.472 149.401c-1.025 0-2.089-.079-3.114-.315-9.026-1.735-14.977-10.445-13.243-19.471l7.37-36.537c1.735-9.026 10.445-14.977 19.471-13.243s14.977 10.445 13.243 19.47l-7.37 36.538c-1.538 8.001-8.514 13.558-16.357 13.558z" fill="#fff"/><path d="M173.386 112.43c10.169-1.497 25.382 3.429 32.004 10.76l2.404-12.139-25.225-4.178-9.183 5.557z" fill="#607F93"/><path d="M191.477 104.745c-14.426-2.326-27.038 1.616-28.181 8.828-.395 2.562.67 5.164 2.837 7.568a6.877 6.877 0 01-.039-2.01c1.025-6.267 11.942-9.696 24.437-7.647 12.494 2.011 21.796 8.711 20.771 14.978-.079.552-.276 1.103-.512 1.616 2.601-1.577 4.256-3.626 4.65-6.031 1.183-7.212-9.538-14.938-23.963-17.302z" fill="#fff"/><path d="M193.407 92.723c6.661 1.065 12.534 3.311 16.83 6.149-10.681-9.302-29.758-10.445-31.216-10.326-.67 1.3-1.182 2.72-1.498 4.217 4.572-.907 10.09-.986 15.884-.04zm5.44-18.721a4.296 4.296 0 100-8.592 4.296 4.296 0 000 8.592z" fill="#607F93"/><path d="M86.714 23.591s.079-.118.197-.355a.815.815 0 00.118-.197c.04-.079.118-.197.158-.276.118-.197.276-.473.433-.709.67-.985 1.734-2.207 3.232-3.547 1.498-1.34 3.43-2.76 5.755-4.218 2.325-1.418 5.045-2.837 8.08-4.217a96.956 96.956 0 0110.011-3.784 125.122 125.122 0 0111.509-3.035c8.04-1.734 16.79-2.798 25.54-3.113 4.375-.158 8.75-.197 13.046-.04 4.296.158 8.513.434 12.613.828 4.059.394 8.001.907 11.705 1.458 3.705.592 7.174 1.222 10.406 1.853 3.192.67 6.148 1.3 8.71 1.931 1.301.315 2.483.63 3.626.907 1.104.276 2.129.551 3.035.788 1.853.512 3.272.906 4.257 1.182.985.276 1.498.434 1.498.434s-.513-.158-1.498-.394c-.985-.276-2.444-.63-4.296-1.104-.907-.236-1.931-.473-3.074-.749a105.108 105.108 0 00-3.627-.827c-2.601-.592-5.518-1.143-8.749-1.735a331.113 331.113 0 00-10.406-1.616 237.944 237.944 0 00-11.666-1.182c-4.06-.315-8.277-.473-12.534-.512-4.336.078-8.671.197-13.007.473-8.631.551-17.224 1.813-25.106 3.665-3.942.946-7.686 2.05-11.194 3.232-3.508 1.222-6.74 2.523-9.617 3.902-2.917 1.38-5.479 2.798-7.646 4.217-2.168 1.42-3.942 2.76-5.242 4.02-1.34 1.222-2.168 2.287-2.641 3.036a9.458 9.458 0 01-.276.433.545.545 0 01-.118.158.646.646 0 00-.08.197 3.09 3.09 0 00-.157.354 1.655 1.655 0 01-2.207.789c-.828-.394-1.182-1.38-.788-2.247zM57.35 16.457s.078-.119.197-.316c.078-.118.157-.236.236-.394.04-.079.079-.157.158-.276.078-.118.157-.197.236-.315.158-.237.355-.473.552-.749.197-.236.434-.473.67-.749.118-.118.236-.276.355-.394l.394-.394a9.54 9.54 0 01.906-.828c.316-.276.67-.551.986-.827.355-.276.71-.552 1.103-.828l1.183-.828c.394-.276.828-.552 1.261-.827.434-.276.867-.513 1.34-.789.434-.276.907-.512 1.38-.749.906-.512 1.891-.985 2.837-1.458.986-.434 1.932-.906 2.917-1.3.985-.395 1.931-.828 2.877-1.144.473-.157.907-.354 1.38-.512.433-.158.906-.315 1.34-.473a60.349 60.349 0 012.444-.828c.748-.236 1.458-.433 2.088-.63.631-.158 1.183-.316 1.617-.434.906-.236 1.418-.394 1.418-.394s-.512.197-1.34.512a53.07 53.07 0 00-1.537.592c-.591.236-1.261.512-2.01.827-.749.316-1.498.67-2.325 1.025-.395.197-.828.394-1.262.591-.433.197-.867.434-1.3.63-.907.434-1.774.907-2.68 1.42-.907.473-1.814 1.025-2.72 1.537-.867.552-1.774 1.104-2.601 1.695-.434.276-.828.552-1.262.867-.394.315-.788.591-1.182.867-.394.276-.749.591-1.104.907-.354.275-.71.59-1.024.867-.316.315-.631.59-.946.867l-.828.827c-.276.276-.473.552-.71.789a2.55 2.55 0 00-.315.354c-.079.119-.197.237-.276.355a9.383 9.383 0 01-.473.67c-.118.197-.197.355-.315.513-.04.078-.079.157-.118.197-.04.079-.08.157-.118.236-.08.158-.158.315-.198.434a3.095 3.095 0 00-.157.354 1.706 1.706 0 01-2.207.828 1.707 1.707 0 01-.828-2.207c-.079-.04-.079-.079-.04-.118z" fill="#fff"/><path d="M51.082 139.626l-11.903 23.649 10.484 4.02h66.452L104.803 130.6c-13.755 0-40.4 3.114-53.721 9.026z" fill="url(#paint22_linear)"/><path d="M96.29 127.368c.63.907 1.774 2.562-.433 9.223-1.34 4.021 3.271 17.145 6.937 26.999l-16.278-33.738 9.774-2.484z" fill="url(#paint23_linear)"/><path d="M94.201 203.241l3.429-8.514-3.429-5.951s-50.529-16.16-50.095-33.936l-9.223 3.153 10.326 18.919 17.973 12.494 31.019 13.835z" fill="#2E353D"/><path d="M94.202 203.24c-21.008-9.498-53.643-26.525-53.643-40.911 0-13.716 28.851-17.421 39.06-18.288 2.088-.198 4.02.985 4.847 2.916l22.269 56.283h10.8l-27.669-66.097c-1.103-2.641-3.784-4.217-6.621-3.981-13.913 1.222-52.421 5.912-53.328 26.014-.827 18.445 37.76 34.881 64.324 45.72v-1.656h-.04z" fill="url(#paint24_linear)"/><path d="M83.244 133.123c2.838-.236 5.518 1.38 6.621 3.981l25.817 61.643h1.852L89.865 132.65c-1.103-2.641-3.783-4.178-6.621-3.981-17.382 1.262-51.436 6.661-53.17 28.773 2.917-18.643 39.65-23.137 53.17-24.319z" fill="#607F93"/><path d="M69.843 130.285s13.873-2.562 26.447-2.917c-4.888 1.892-6.228 5.873-4.809 9.223l-7.33-5.754-14.308-.552zm40.045 94.87c-.119 0-.237 0-.395-.04-1.064-.197-1.813-1.261-1.576-2.325l11.469-60.382c.197-1.065 1.262-1.774 2.326-1.577 1.064.197 1.813 1.261 1.576 2.325l-11.469 60.383c-.158.946-1.025 1.616-1.931 1.616z" fill="#607F93"/><path d="M136.927 196.617c.981-6.06-8.03-12.56-20.127-14.52-12.097-1.959-22.7 1.364-23.681 7.423-.981 6.06 8.029 12.56 20.127 14.52 12.097 1.96 22.699-1.364 23.681-7.423z" fill="#fff"/><path d="M135.3 206.705c.981-6.059-8.03-12.56-20.127-14.52-12.097-1.959-22.7 1.364-23.68 7.423-.983 6.06 8.029 12.56 20.126 14.52 12.097 1.96 22.699-1.364 23.681-7.423z" fill="#B8CCBC"/><path d="M110.992 229.648c-.868 0-1.735-.079-2.641-.236-7.568-1.459-12.573-8.75-11.115-16.318l6.188-30.664c1.458-7.568 8.75-12.573 16.317-11.115 7.568 1.458 12.574 8.75 11.115 16.318l-6.188 30.664c-1.261 6.7-7.134 11.351-13.676 11.351z" fill="#fff"/><path d="M99.995 198.629c8.514-1.261 21.323 2.877 26.841 9.026l2.05-10.208-21.166-3.508-7.725 4.69z" fill="#607F93"/><path d="M115.169 192.205c-12.1-1.971-22.702 1.379-23.648 7.409-.355 2.129.552 4.336 2.404 6.346a4.902 4.902 0 01-.04-1.695c.868-5.242 10.012-8.119 20.496-6.424 10.484 1.695 18.288 7.331 17.421 12.573a5.342 5.342 0 01-.433 1.34c2.167-1.301 3.586-3.035 3.902-5.045.985-6.07-8.001-12.573-20.102-14.504z" fill="#fff"/><path d="M116.785 182.115c5.597.906 10.524 2.798 14.11 5.123-8.947-7.804-24.988-8.75-26.21-8.671a15.157 15.157 0 00-1.261 3.548c3.902-.749 8.513-.789 13.361 0z" fill="url(#paint25_linear)"/><path d="M108.469 181.563l-2.247-5.321a14.011 14.011 0 00-2.798 5.873 39.512 39.512 0 015.045-.552z" fill="url(#paint26_linear)"/><path d="M110.321 181.523l-2.798-6.661c-.473.434-.867.907-1.261 1.38l2.246 5.321c.552-.04 1.183-.04 1.813-.04zm13.611-16.164a3.626 3.626 0 10-5.128-5.128 3.626 3.626 0 005.128 5.128z" fill="#607F93"/><path d="M40.559 136.118l-.237.119c-.078.039-.157.079-.276.118-.078.039-.197.118-.315.158-.512.276-1.261.709-2.168 1.3-1.852 1.222-4.414 3.193-7.015 5.991-1.301 1.419-2.602 3.035-3.745 4.888-1.143 1.852-2.128 3.941-2.759 6.227-.63 2.286-.867 4.73-.63 7.213.118 1.222.394 2.483.749 3.705a22.778 22.778 0 001.38 3.547c1.103 2.325 2.6 4.454 4.256 6.424 1.655 1.971 3.468 3.745 5.36 5.361 1.853 1.616 3.784 3.074 5.636 4.375.473.315.907.63 1.38.946.473.315.906.591 1.34.906.906.552 1.774 1.143 2.64 1.616.868.513 1.656.985 2.444 1.458.789.434 1.538.868 2.247 1.262a92.269 92.269 0 003.705 1.931c1.025.512 1.852.907 2.404 1.182l.867.434s-.315-.118-.867-.394c-.552-.237-1.419-.591-2.444-1.104a74.167 74.167 0 01-3.783-1.813 43.118 43.118 0 01-2.286-1.182c-.828-.394-1.656-.867-2.523-1.34-.867-.473-1.773-1.025-2.72-1.537a27.032 27.032 0 01-1.418-.868c-.473-.275-.946-.591-1.42-.906-1.93-1.222-3.901-2.641-5.872-4.178-1.97-1.577-3.902-3.311-5.675-5.281-1.774-1.971-3.43-4.139-4.73-6.543-.67-1.183-1.183-2.483-1.656-3.784-.433-1.301-.788-2.641-.945-3.981a20.893 20.893 0 01.394-8.001c.59-2.562 1.616-4.887 2.759-6.937a35.21 35.21 0 013.823-5.478 42.845 42.845 0 017.291-6.779 33.55 33.55 0 012.405-1.577c.157-.079.276-.158.394-.237.118-.039.197-.118.276-.157a.897.897 0 00.197-.118c.827-.434 1.813-.158 2.246.67.434.827.158 1.813-.67 2.246 0 .118-.04.118-.04.118zm.196-12.73s-.315.118-.906.276c-.276.078-.552.197-.946.315-.394.158-.788.315-1.261.512-.473.197-.946.434-1.498.67-.512.237-1.064.513-1.616.828a17.4 17.4 0 01-.867.473c-.276.158-.552.355-.867.512-.591.316-1.143.71-1.734 1.104-.552.394-1.143.788-1.656 1.182-.276.197-.552.394-.788.631-.236.197-.512.434-.749.631-.512.394-.946.827-1.38 1.221-.433.395-.827.828-1.182 1.183-.354.355-.67.749-.946 1.064-.276.315-.512.591-.71.828-.393.473-.59.749-.59.749s.157-.316.473-.828c.157-.276.315-.591.551-.946.237-.355.473-.788.789-1.182.315-.434.63-.907 1.024-1.38.395-.473.789-.985 1.222-1.458.237-.237.434-.513.67-.749.237-.237.473-.513.71-.749.473-.512 1.024-.985 1.537-1.498.552-.473 1.064-.946 1.616-1.379.276-.237.552-.434.828-.67.276-.197.551-.434.827-.631.552-.394 1.064-.788 1.577-1.143.512-.355 1.025-.67 1.458-.946.473-.276.907-.512 1.3-.749.395-.236.79-.394 1.065-.552.552-.275.867-.394.867-.394a1.656 1.656 0 012.207.789c.394.827.04 1.813-.788 2.207a.553.553 0 00-.236.079zM3.352 182.075v.71c0 .118.04.275.04.433.078.631.275 1.695.787 2.996.513 1.3 1.34 2.837 2.562 4.453 1.183 1.656 2.72 3.429 4.533 5.203 3.666 3.587 8.474 7.331 13.953 10.839 5.478 3.508 11.627 6.858 17.933 9.814a221.53 221.53 0 0018.958 7.804c6.188 2.207 12.021 3.981 17.106 5.4 2.522.709 4.848 1.3 6.937 1.813 2.089.512 3.902.946 5.4 1.261 1.497.315 2.68.591 3.468.749a19.56 19.56 0 011.222.276s-.434-.079-1.222-.237c-.828-.157-2.01-.354-3.508-.63-1.498-.276-3.35-.67-5.44-1.104-2.088-.473-4.453-.985-6.975-1.616a241.36 241.36 0 01-17.303-4.927c-6.267-2.049-12.85-4.454-19.313-7.291-6.464-2.799-12.77-5.991-18.446-9.381-5.675-3.389-10.76-7.055-14.701-10.72-1.971-1.814-3.666-3.666-5.045-5.44a25.82 25.82 0 01-3.075-5.045c-.67-1.537-.985-2.877-1.103-3.862-.04-.237-.04-.473-.079-.67 0-.158 0-.276-.04-.394v-.316c-.039-.906.67-1.695 1.577-1.734.907-.039 1.695.67 1.734 1.577.04 0 .04 0 .04.039z" fill="#fff"/><defs><linearGradient id="paint0_linear" x1="233.591" y1="165.581" x2="24.576" y2="252.092" gradientUnits="userSpaceOnUse"><stop stop-color="#FFE497"/><stop offset="1" stop-color="#fff" stop-opacity="0"/></linearGradient><linearGradient id="paint1_linear" x1="296.312" y1="279.108" x2="55.642" y2="378.72" gradientUnits="userSpaceOnUse"><stop stop-color="#FFDC78"/><stop offset="1" stop-color="#fff" stop-opacity="0"/></linearGradient><linearGradient id="paint2_linear" x1="196.588" y1="235.846" x2="32.987" y2="303.56" gradientUnits="userSpaceOnUse"><stop stop-color="#FFE497"/><stop offset="1" stop-color="#fff" stop-opacity="0"/></linearGradient><linearGradient id="paint3_linear" x1="117.682" y1="171.958" x2="187.636" y2="182.718" gradientUnits="userSpaceOnUse"><stop stop-color="#fff"/><stop offset=".149" stop-color="#CDCDCD"/><stop offset=".384" stop-color="#858585"/><stop offset=".595" stop-color="#4C4C4C"/><stop offset=".774" stop-color="#232323"/><stop offset=".915" stop-color="#090909"/><stop offset="1"/></linearGradient><linearGradient id="paint4_linear" x1="117.682" y1="171.958" x2="187.636" y2="182.718" gradientUnits="userSpaceOnUse"><stop stop-color="#fff"/><stop offset="1" stop-color="#fff"/></linearGradient><linearGradient id="paint5_linear" x1="312.418" y1="239.91" x2="409.463" y2="217.786" gradientUnits="userSpaceOnUse"><stop stop-color="#2E353D"/><stop offset="1" stop-color="#526A7F"/></linearGradient><linearGradient id="paint6_linear" x1="183.854" y1="188.036" x2="152.499" y2="188.036" gradientUnits="userSpaceOnUse"><stop stop-color="#2E353D"/><stop offset="1" stop-color="#526A7F"/></linearGradient><linearGradient id="paint7_linear" x1="321.787" y1="187.837" x2="400.426" y2="187.837" gradientUnits="userSpaceOnUse"><stop stop-color="#2E353D"/><stop offset="1" stop-color="#526A7F"/></linearGradient><linearGradient id="paint8_linear" x1="261.632" y1="185.373" x2="232.118" y2="131.538" gradientUnits="userSpaceOnUse"><stop stop-color="#2E353D"/><stop offset="1" stop-color="#526A7F"/></linearGradient><linearGradient id="paint9_linear" x1="166.868" y1="195.992" x2="345.886" y2="195.992" gradientUnits="userSpaceOnUse"><stop stop-color="#2E353D"/><stop offset="1" stop-color="#526A7F"/></linearGradient><linearGradient id="paint10_linear" x1="166.849" y1="208.893" x2="345.412" y2="208.893" gradientUnits="userSpaceOnUse"><stop stop-color="#99CAE2"/><stop offset=".188" stop-color="#BADBEB"/><stop offset=".401" stop-color="#D8EBF4"/><stop offset=".611" stop-color="#EEF6FA"/><stop offset=".813" stop-color="#FBFDFE"/><stop offset="1" stop-color="#fff"/></linearGradient><linearGradient id="paint11_linear" x1="168.741" y1="214.475" x2="343.362" y2="214.475" gradientUnits="userSpaceOnUse"><stop stop-color="#526A7F"/><stop offset="1" stop-color="#2E353D"/></linearGradient><linearGradient id="paint12_linear" x1="218.131" y1="233.499" x2="294.272" y2="233.499" gradientUnits="userSpaceOnUse"><stop stop-color="#FFB948"/><stop offset="1" stop-color="#DD8A05"/></linearGradient><linearGradient id="paint13_linear" x1="311.33" y1="236.254" x2="311.33" y2="323.484" gradientUnits="userSpaceOnUse"><stop stop-color="#FFB948"/><stop offset="1" stop-color="#DD8A05"/></linearGradient><linearGradient id="paint14_linear" x1="445.976" y1="158.899" x2="507.521" y2="121.162" gradientUnits="userSpaceOnUse"><stop stop-color="#fff"/><stop offset="1" stop-color="#fff"/></linearGradient><linearGradient id="paint15_linear" x1="376.247" y1="147.323" x2="508.107" y2="147.323" gradientUnits="userSpaceOnUse"><stop stop-color="#2E353D"/><stop offset="1" stop-color="#526A7F"/></linearGradient><linearGradient id="paint16_linear" x1="398.107" y1="165.234" x2="483.798" y2="165.234" gradientUnits="userSpaceOnUse"><stop stop-color="#2E353D"/><stop offset="1" stop-color="#526A7F"/></linearGradient><linearGradient id="paint17_linear" x1="209.33" y1="87.41" x2="269.057" y2="50.788" gradientUnits="userSpaceOnUse"><stop stop-color="#fff"/><stop offset="1" stop-color="#fff"/></linearGradient><linearGradient id="paint18_linear" x1="115.119" y1="40.134" x2="182.952" y2="86.474" gradientUnits="userSpaceOnUse"><stop stop-color="#fff"/><stop offset="1" stop-color="#fff"/></linearGradient><linearGradient id="paint19_linear" x1="135.472" y1="94.747" x2="180.922" y2="94.747" gradientUnits="userSpaceOnUse"><stop stop-color="#607F93"/><stop offset="1" stop-color="#2E353D"/></linearGradient><linearGradient id="paint20_linear" x1="110.821" y1="97.376" x2="98.291" y2="67.501" gradientUnits="userSpaceOnUse"><stop stop-color="#526A7F"/><stop offset="1" stop-color="#2E353D"/></linearGradient><linearGradient id="paint21_linear" x1="79.172" y1="62.288" x2="311.347" y2="62.288" gradientUnits="userSpaceOnUse"><stop stop-color="#526A7F"/><stop offset="1" stop-color="#2E353D"/></linearGradient><linearGradient id="paint22_linear" x1="54.204" y1="129.602" x2="109.46" y2="183.401" gradientUnits="userSpaceOnUse"><stop stop-color="#fff"/><stop offset="1" stop-color="#fff"/></linearGradient><linearGradient id="paint23_linear" x1="109.566" y1="150.769" x2="82.888" y2="136.661" gradientUnits="userSpaceOnUse"><stop stop-color="#2E353D"/><stop offset="1" stop-color="#526A7F"/></linearGradient><linearGradient id="paint24_linear" x1="125.073" y1="188.984" x2="37.084" y2="142.454" gradientUnits="userSpaceOnUse"><stop stop-color="#2E353D"/><stop offset="1" stop-color="#526A7F"/></linearGradient><linearGradient id="paint25_linear" x1="103.463" y1="182.907" x2="130.911" y2="182.907" gradientUnits="userSpaceOnUse"><stop stop-color="#2E353D"/><stop offset="1" stop-color="#526A7F"/></linearGradient><linearGradient id="paint26_linear" x1="93.711" y1="179.189" x2="108.281" y2="179.189" gradientUnits="userSpaceOnUse"><stop stop-color="#526A7F"/><stop offset="1" stop-color="#2E353D"/></linearGradient><clipPath id="clip0"><path fill="#fff" transform="translate(0 137)" d="M0 0h280.5v276.7H0z"/></clipPath></defs></svg>