<svg width="40" height="40" fill="none" xmlns="http://www.w3.org/2000/svg"><path d="M34 18c1.9 0 6-4.8 6-10 0-3.3-2.7-6-6-6s-6 2.7-6 6c0 5.2 4.1 10 6 10zm0-14c2.2 0 4 1.8 4 4 0 4.2-3.1 7.5-4 8-.9-.5-4-3.7-4-8 0-2.2 1.8-4 4-4z" fill="#C5691C"/><path d="M34 10a2 2 0 100-4 2 2 0 000 4zM19 20H1c-.6 0-1 .4-1 1v16c0 .6.4 1 1 1h18c.6 0 1-.4 1-1V21c0-.6-.4-1-1-1zM9 22h2v2.6l-.3-.3c-.4-.4-1-.4-1.4 0l-.3.3V22zm9 14H2V22h5v5c0 .4.2.8.6.9.4.2.8.1 1.1-.2l1.3-1.3 1.3 1.3c.2.2.4.3.7.3.1 0 .3 0 .4-.1.4-.2.6-.5.6-.9v-5h5v14z" fill="#C5691C"/><path d="M33 24h-6c-1.5 0-2-1.1-2-2 0-.9.5-2 2-2h2c.6 0 1-.4 1-1s-.4-1-1-1h-2c-2.6 0-4 2-4 4s1.4 4 4 4h6c1.5 0 2 1.1 2 2 0 .9-.5 2-2 2h-8c-.6 0-1 .4-1 1s.4 1 1 1h8c2.6 0 4-2 4-4s-1.4-4-4-4z" fill="#31303E"/></svg>