<svg width="40" height="40" fill="none" xmlns="http://www.w3.org/2000/svg"><path d="M13.5 10.9c.3.2.7.2 1 0l2.4-1.6 2.4 1.6c.2.1.4.2.6.2.2 0 .3 0 .5-.1.3-.2.5-.5.5-.9v-5h10v13c0 .6.4 1 1 1s1-.4 1-1V4c0-.6-.4-1-1-1H2c-.6 0-1 .4-1 1v26c0 .6.4 1 1 1h18c.6 0 1-.4 1-1s-.4-1-1-1H3V5h10v5c0 .4.2.7.5.9zM19 8.1l-1.4-1c-.3-.2-.8-.2-1.1 0l-1.4 1V5h4v3.1H19z" fill="#C5691C"/><path d="M38.7 35.3l-2.8-2.8c.7-1 1.1-2.2 1.1-3.5 0-3.3-2.7-6-6-6s-6 2.7-6 6 2.7 6 6 6c1.3 0 2.5-.4 3.5-1.1l2.8 2.8c.2.2.5.3.7.3.2 0 .5-.1.7-.3.4-.4.4-1 0-1.4zM27 29c0-2.2 1.8-4 4-4s4 1.8 4 4-1.8 4-4 4-4-1.8-4-4z" fill="#31303E"/></svg>