<svg width="40" height="40" fill="none" xmlns="http://www.w3.org/2000/svg"><path d="M29 12H17c-.6 0-1 .4-1 1s.4 1 1 1h12c.6 0 1-.4 1-1s-.4-1-1-1zm-16 0h-2c-.6 0-1 .4-1 1s.4 1 1 1h2c.6 0 1-.4 1-1s-.4-1-1-1zm16 6H17c-.6 0-1 .4-1 1s.4 1 1 1h12c.6 0 1-.4 1-1s-.4-1-1-1zm-16 0h-2c-.6 0-1 .4-1 1s.4 1 1 1h2c.6 0 1-.4 1-1s-.4-1-1-1zm6 6h-2c-.6 0-1 .4-1 1s.4 1 1 1h2c.6 0 1-.4 1-1s-.4-1-1-1zm-6 0h-2c-.6 0-1 .4-1 1s.4 1 1 1h2c.6 0 1-.4 1-1s-.4-1-1-1zm6 14h-2c-.6 0-1 .4-1 1s.4 1 1 1h2c.6 0 1-.4 1-1s-.4-1-1-1zm16-14v-2c0-.6-.4-1-1-1s-1 .4-1 1v2c0 .6.4 1 1 1s1-.4 1-1zm-22 6h-2c-.6 0-1 .4-1 1s.4 1 1 1h2c.6 0 1-.4 1-1s-.4-1-1-1z" fill="#C5691C"/><path fill-rule="evenodd" clip-rule="evenodd" d="M32 4h-4V3c0-.6-.4-1-1-1H13c-.6 0-1 .4-1 1v1H8C6.3 4 5 5.3 5 7v30c0 1.7 1.3 3 3 3h9v-2H8c-.6 0-1-.4-1-1V7c0-.6.4-1 1-1h4v1c0 .6.4 1 1 1h14c.6 0 1-.4 1-1V6h4c.6 0 1 .4 1 1v17h2V7c0-1.7-1.3-3-3-3zm-6 0H14v2h12V4z" fill="#C5691C"/><path d="M28 26c-3.9 0-7 3.1-7 7s3.1 7 7 7 7-3.1 7-7-3.1-7-7-7zm0 12c-2.8 0-5-2.2-5-5s2.2-5 5-5 5 2.2 5 5-2.2 5-5 5z" fill="#31303E"/><path d="M28.8 31.3l-1.3 1.3-.3-.3c-.4-.4-1-.4-1.4 0-.4.4-.4 1 0 1.4l1 1c.2.2.5.3.7.3.2 0 .5-.1.7-.3l2-2c.4-.4.4-1 0-1.4-.4-.4-1-.4-1.4 0z" fill="#31303E"/></svg>