<svg width="22" height="24" viewBox="0 0 22 24" fill="none" xmlns="http://www.w3.org/2000/svg">
<path d="M15.5 9.36923L6.5 4.19938M2.27 6.9387L11 11.9691L19.73 6.9387M11 22V11.9591M20 15.9436V7.97466C19.9996 7.6253 19.9071 7.28217 19.7315 6.9797C19.556 6.67723 19.3037 6.42606 19 6.25138L12 2.26691C11.696 2.09205 11.3511 2 11 2C10.6489 2 10.304 2.09205 10 2.26691L3 6.25138C2.69626 6.42606 2.44398 6.67723 2.26846 6.9797C2.09294 7.28217 2.00036 7.6253 2 7.97466V15.9436C2.00036 16.293 2.09294 16.6361 2.26846 16.9386C2.44398 17.241 2.69626 17.4922 3 17.6669L10 21.6514C10.304 21.8262 10.6489 21.9183 11 21.9183C11.3511 21.9183 11.696 21.8262 12 21.6514L19 17.6669C19.3037 17.4922 19.556 17.241 19.7315 16.9386C19.9071 16.6361 19.9996 16.293 20 15.9436Z" stroke="#31303E" stroke-width="2.5" stroke-linecap="round" stroke-linejoin="round"/>
</svg>
