<svg width="40" height="40" viewBox="0 0 40 40" fill="none" xmlns="http://www.w3.org/2000/svg">
<path d="M17 23H33C33.6 23 34 22.6 34 22V8C34 7.4 33.6 7 33 7H17C16.4 7 16 7.4 16 8V22C16 22.6 16.4 23 17 23ZM24 9H26V11.6L25.7 11.3C25.3 10.9 24.7 10.9 24.3 11.3L24 11.6V9ZM18 9H22V14C22 14.4 22.2 14.8 22.6 14.9C23 15.1 23.4 15 23.7 14.7L25 13.4L26.3 14.7C26.5 14.9 26.7 15 27 15C27.1 15 27.3 15 27.4 14.9C27.8 14.7 28 14.4 28 14V9H32V21H18V9Z" fill="#31303E"/>
<path d="M39 27H11.9L10 5.9C10 5.4 9.5 5 9 5H1C0.4 5 0 5.4 0 6C0 6.6 0.4 7 1 7H8.10001L10 28.1C10 28.6 10.5 29 11 29H14.6C14.3 29.6 14 30.3 14 31C14 33.2 15.8 35 18 35C20.2 35 22 33.2 22 31C22 30.3 21.8 29.6 21.4 29H28.5C28.2 29.6 27.9 30.3 27.9 31C27.9 33.2 29.7 35 31.9 35C34.1 35 35.9 33.2 35.9 31C35.9 30.3 35.7 29.6 35.3 29H38.9C39.5 29 39.9 28.6 39.9 28C39.9 27.4 39.6 27 39 27ZM20 31C20 32.1 19.1 33 18 33C16.9 33 16 32.1 16 31C16 29.9 16.9 29 18 29C19.1 29 20 29.9 20 31ZM34 31C34 32.1 33.1 33 32 33C30.9 33 30 32.1 30 31C30 29.9 30.9 29 32 29C33.1 29 34 29.9 34 31Z" fill="#C5691C"/>
</svg>
