<svg width="40" height="40" viewBox="0 0 40 40" fill="none" xmlns="http://www.w3.org/2000/svg">
<g clip-path="url(#clip0)">
<path d="M20 34C27.7 34 34 27.7 34 20C34 12.3 27.7 6 20 6C12.3 6 6 12.3 6 20C6 27.7 12.3 34 20 34ZM8.5 23.5C10 24.4 12.1 25.1 14.4 25.5C14.8 27.8 15.5 29.9 16.4 31.4C12.7 30.3 9.7 27.3 8.5 23.5ZM20 8C21.2 8 22.6 10.3 23.4 14.2C22.3 14.1 21.1 14 20 14C18.9 14 17.7 14.1 16.6 14.2C17.4 10.3 18.8 8 20 8ZM20 16C21.4 16 22.6 16.1 23.8 16.2C23.9 17.4 24 18.6 24 20C24 21.4 23.9 22.6 23.8 23.8C22.6 23.9 21.4 24 20 24C18.6 24 17.4 23.9 16.2 23.8C16.1 22.6 16 21.4 16 20C16 18.6 16.1 17.4 16.2 16.2C17.4 16.1 18.6 16 20 16ZM25.8 16.6C29.7 17.4 32 18.9 32 20C32 21.1 29.7 22.7 25.8 23.4C25.9 22.3 26 21.1 26 20C26 18.9 25.9 17.7 25.8 16.6ZM20 32C18.8 32 17.4 29.7 16.6 25.8C17.7 25.9 18.9 26 20 26C21.1 26 22.3 25.9 23.4 25.8C22.6 29.7 21.2 32 20 32ZM14.2 23.4C10.3 22.6 8 21.1 8 20C8 18.9 10.3 17.3 14.2 16.6C14.1 17.7 14 18.9 14 20C14 21.1 14.1 22.3 14.2 23.4ZM23.5 31.5C24.4 30 25.1 27.9 25.5 25.6C27.8 25.2 29.9 24.5 31.4 23.6C30.3 27.3 27.3 30.3 23.5 31.5ZM31.5 16.5C30 15.6 27.9 14.9 25.6 14.5C25.2 12.2 24.5 10.1 23.6 8.6C27.3 9.7 30.3 12.7 31.5 16.5ZM16.5 8.5C15.6 10 14.9 12.1 14.5 14.4C12.2 14.8 10.1 15.5 8.60001 16.4C9.70001 12.7 12.7 9.7 16.5 8.5Z" fill="#C5691C"/>
<path d="M39.2 10C38.7 9.9 38.1 10.2 38 10.8L37.9 11.2C34.7 4.5 27.8 0 20 0C10.1 0 1.8 7.1 0.300002 16.8C0.200002 17.3 0.600006 17.9 1.10001 17.9C1.60001 18 2.2 17.6 2.2 17.1C3.6 8.4 11.1 2 20 2C27.1 2 33.2 6.1 36.2 12.1L35.6 11.7C35.1 11.4 34.5 11.5 34.2 12C33.9 12.5 34 13.1 34.5 13.4L37.4 15.3C37.6 15.9 37.7 16.5 37.8 17.2C37.9 17.7 38.3 18 38.8 18C38.9 18 38.9 18 39 18C39.5 17.9 39.9 17.4 39.8 16.9C39.7 16.1 39.5 15.4 39.3 14.7L40 11.3C40.1 10.7 39.8 10.1 39.2 10Z" fill="#31303E"/>
<path d="M38.9 22C38.4 21.9 37.8 22.3 37.8 22.8C36.4 31.6 28.9 38 20 38C12.9 38 6.8 33.9 3.8 27.9L4.39999 28.3C4.89999 28.6 5.5 28.5 5.8 28C6.1 27.5 6 26.9 5.5 26.6L2.60001 24.7C2.40001 24.1 2.3 23.5 2.2 22.8C2.1 22.3 1.60001 21.9 1.10001 22C0.600005 22.1 0.200002 22.6 0.300002 23.1C0.400002 23.9 0.600002 24.6 0.800002 25.3L0.100005 28.7C5.26756e-06 29.2 0.299993 29.8 0.899993 29.9C0.999993 29.9 1.00001 29.9 1.10001 29.9C1.60001 29.9 2.00001 29.6 2.10001 29.1L2.2 28.7C5.3 35.5 12.2 40 20 40C29.9 40 38.2 32.9 39.7 23.2C39.8 22.6 39.4 22.1 38.9 22Z" fill="#31303E"/>
</g>
<defs>
<clipPath id="clip0">
<rect width="40" height="40" fill="white"/>
</clipPath>
</defs>
</svg>
