<svg width="22" height="21" viewBox="0 0 22 21" fill="none" xmlns="http://www.w3.org/2000/svg">
<path d="M19.0969 2L17.2908 3.78712M17.2908 3.78712L20 6.46779L16.8392 9.59525L14.13 6.91457M17.2908 3.78712L14.13 6.91457M10.4184 10.5871C10.8847 11.0423 11.2554 11.5843 11.5091 12.1819C11.7628 12.7795 11.8945 13.4208 11.8967 14.069C11.8989 14.7171 11.7715 15.3593 11.5219 15.9585C11.2722 16.5578 10.9052 17.1022 10.442 17.5606C9.97879 18.0189 9.42854 18.382 8.82292 18.629C8.2173 18.8761 7.56828 19.0021 6.91322 19C6.25816 18.9978 5.61 18.8674 5.00607 18.6164C4.40214 18.3653 3.85436 17.9986 3.39427 17.5372C2.48951 16.6103 1.98887 15.3689 2.00019 14.0803C2.0115 12.7917 2.53387 11.5591 3.45477 10.6479C4.37568 9.73666 5.62144 9.2198 6.92375 9.2086C8.22606 9.1974 9.48071 9.69276 10.4175 10.588L10.4184 10.5871ZM10.4184 10.5871L14.13 6.91457" stroke="white" stroke-width="2.5" stroke-linecap="round" stroke-linejoin="round"/>
</svg>
