<svg width="136" height="44" viewBox="0 0 136 44" fill="none" xmlns="http://www.w3.org/2000/svg">
<g clip-path="url(#clip0)">
<path d="M56.2978 14.1186L60.716 9.12466H58.1062L54.3044 13.461V9.12466H52.0645V19.8113H54.3044V14.9612L58.2706 19.8113H60.9215L56.2978 14.1186Z" fill="black"/>
<path d="M67.2924 8.46704L61.8877 19.8113H64.3537L65.4634 17.4068H69.1213L70.231 19.8113H72.7176L67.2924 8.46704ZM68.6281 15.6394H65.9977L67.3129 12.5978L68.6281 15.6394Z" fill="black"/>
<path d="M83.3419 19.8113V9.12466H74.2588V19.8113H76.4987V11.0976H81.1019V19.8113H83.3419Z" fill="black"/>
<path d="M93.3085 19.8113H95.4252V8.59033L87.8628 15.5983V9.12466H85.7256V20.3456L93.3085 13.3376V19.8113Z" fill="black"/>
<path d="M100.151 19.8113H102.35V11.0976H105.227V9.12466H97.2949V11.0976H100.151V19.8113Z" fill="black"/>
<path d="M106.892 19.8113L108.001 17.4068H111.659L112.769 19.8113H115.256L109.81 8.48758L104.426 19.8113H106.892ZM111.146 15.6394H108.515L109.83 12.5978L111.146 15.6394Z" fill="black"/>
<path d="M118.934 15.1256H123.928V19.8113H126.106V9.12466H123.928V13.1116H118.934V9.12466H116.756V19.8113H118.934V15.1256Z" fill="black"/>
<path d="M55.9896 24.7435L51.7152 34.0532H50.0918V37.6496H52.2495V35.9645H59.7503V37.6496H61.8875V34.0532H60.264L55.9896 24.7435ZM55.9896 28.8949L57.9008 34.0532H54.0785L55.9896 28.8949Z" fill="black"/>
<path d="M72.3265 26.6342C71.8127 26.141 71.2168 25.7505 70.5386 25.4834C69.8605 25.2162 69.1001 25.0724 68.2987 25.0724C67.4972 25.0724 66.7574 25.2162 66.0587 25.4834C65.3806 25.7505 64.7641 26.141 64.2709 26.6342C63.7571 27.1275 63.3667 27.7235 63.079 28.3811C62.7913 29.0593 62.668 29.7991 62.668 30.6212C62.668 31.4227 62.8118 32.1625 63.079 32.8612C63.3461 33.5394 63.7366 34.1354 64.2503 34.6492C64.7641 35.163 65.36 35.5534 66.0382 35.8206C66.7163 36.1083 67.4767 36.2316 68.2987 36.2316C69.1207 36.2316 69.881 36.0878 70.5592 35.8206C71.2373 35.5329 71.8333 35.1424 72.347 34.6492C72.8608 34.1354 73.2512 33.5394 73.5184 32.8612C73.8061 32.1625 73.9294 31.4227 73.9294 30.6417C73.9294 29.8197 73.7856 29.0798 73.5184 28.4016C73.2512 27.7235 72.8403 27.1275 72.3265 26.6342ZM71.3812 32.0392C71.2168 32.4708 70.9907 32.8407 70.703 33.149C70.4153 33.4572 70.066 33.7038 69.655 33.8888C69.244 34.0532 68.7919 34.156 68.3192 34.156C67.8466 34.156 67.3739 34.0738 66.9835 33.8888C66.5725 33.7244 66.2231 33.4778 65.9354 33.149C65.6477 32.8407 65.4011 32.4502 65.2573 32.0186C65.0929 31.5871 65.0107 31.1144 65.0107 30.6212C65.0107 30.1074 65.0929 29.6347 65.2573 29.2237C65.4217 28.7921 65.6477 28.4222 65.9354 28.1139C66.2231 27.8057 66.5725 27.559 66.9835 27.3741C67.3945 27.2097 67.8466 27.1069 68.3398 27.1069C68.833 27.1069 69.2851 27.1891 69.6961 27.3741C70.1071 27.5385 70.4564 27.7851 70.7441 28.1139C71.0318 28.4222 71.2579 28.8127 71.4223 29.2442C71.5661 29.6758 71.6483 30.1485 71.6483 30.6417C71.6278 31.1349 71.5456 31.6076 71.3812 32.0392Z" fill="black"/>
<path d="M81.04 25.0724C80.218 25.0724 79.4577 25.2162 78.759 25.4834C78.0603 25.7505 77.4643 26.141 76.9506 26.6137C76.4368 27.1069 76.0464 27.6824 75.7587 28.3605C75.471 29.0387 75.3477 29.7991 75.3477 30.6212C75.3477 31.4432 75.4915 32.2036 75.7587 32.8818C76.0464 33.56 76.4368 34.156 76.9506 34.6286C77.4643 35.1219 78.0603 35.4918 78.759 35.759C79.4577 36.0261 80.218 36.17 81.04 36.17C81.8209 36.17 82.4785 36.0672 82.9717 35.8823C83.4855 35.6973 83.9581 35.4301 84.3897 35.0808V32.6146C84.1636 32.8818 83.8759 33.1284 83.5677 33.3545C83.2594 33.5805 82.8895 33.7449 82.4991 33.8888C82.1086 34.0327 81.636 34.0943 81.1222 34.0943C80.6701 34.0943 80.2386 34.0121 79.807 33.8477C79.396 33.6833 79.0261 33.4572 78.7179 33.1695C78.4096 32.8612 78.1425 32.5119 77.9781 32.0803C77.7931 31.6487 77.7109 31.1761 77.7109 30.6417C77.7109 30.1074 77.7931 29.6347 77.9781 29.2031C78.163 28.7716 78.4096 28.4016 78.7179 28.1139C79.0261 27.8057 79.396 27.5796 79.807 27.4357C80.218 27.2713 80.6496 27.1891 81.1222 27.1891C81.636 27.1891 82.0881 27.2508 82.4991 27.3741C82.9101 27.4974 83.2594 27.6824 83.5677 27.9084C83.8759 28.1345 84.1636 28.3811 84.3897 28.6483V26.1821C83.9581 25.8328 83.4855 25.545 82.9717 25.3601C82.4785 25.1546 81.8209 25.0724 81.04 25.0724Z" fill="black"/>
<path d="M93.904 25.2779H85.9717V27.2713H88.8076V35.985H91.027V27.2713H93.904V25.2779Z" fill="black"/>
<path d="M93.6992 35.985H96.1652L97.2749 33.5805H100.933L102.043 35.985H104.529L99.0833 24.6613L93.6992 35.985ZM100.44 31.8131H97.8092L99.1244 28.7716L100.44 31.8131Z" fill="black"/>
<path d="M112.585 30.6623C112.276 30.4773 111.948 30.3334 111.598 30.2101C112.071 30.0046 112.461 29.7375 112.749 29.3881C113.057 28.9976 113.222 28.5455 113.222 27.9906C113.222 27.5385 113.14 27.1275 112.955 26.7986C112.77 26.4698 112.523 26.1821 112.215 25.9561C111.886 25.73 111.516 25.5656 111.085 25.4423C110.653 25.3395 110.16 25.2779 109.625 25.2779H106.07V35.9645H109.852C110.653 35.9645 111.352 35.8617 111.948 35.6356C112.544 35.4301 113.016 35.0808 113.345 34.6286C113.674 34.1765 113.859 33.6011 113.859 32.9023C113.859 32.368 113.756 31.9159 113.53 31.546C113.263 31.1966 112.955 30.8883 112.585 30.6623ZM109.399 27.0247C109.872 27.0247 110.263 27.1275 110.53 27.3535C110.797 27.5796 110.941 27.8879 110.941 28.2783C110.941 28.5455 110.879 28.7716 110.756 28.9565C110.632 29.1415 110.447 29.3059 110.221 29.4086C109.995 29.5114 109.728 29.5525 109.399 29.5525H108.228V27.0247H109.399ZM111.29 33.5394C111.126 33.7655 110.9 33.9504 110.612 34.0532C110.324 34.156 109.995 34.2176 109.625 34.2176H108.228V31.1349H109.625C109.893 31.1349 110.16 31.1555 110.386 31.2171C110.612 31.2788 110.817 31.361 111.002 31.4843C111.167 31.6076 111.311 31.7515 111.413 31.9364C111.516 32.1214 111.557 32.3475 111.557 32.6146C111.537 33.0051 111.454 33.3134 111.29 33.5394Z" fill="black"/>
<path d="M124.339 25.2779H121.729L117.927 29.6142V25.2779H115.688V35.985H117.927V31.1349L121.894 35.985H124.565L119.921 30.2923L124.339 25.2779Z" fill="black"/>
<path d="M133.566 35.985H136.053L130.607 24.6613L125.202 35.985H127.668L128.778 33.5805H132.436L133.566 35.985ZM131.943 31.8131H129.312L130.627 28.7716L131.943 31.8131Z" fill="black"/>
<path d="M39.0859 6.26858C39.0654 4.80945 38.0173 3.53527 36.5788 3.24756L20.3649 0.082682C19.81 -0.0200737 19.2346 -0.0200737 18.6798 0.082682L2.50691 3.24756C1.06841 3.53527 0.0203573 4.78889 -0.000192747 6.26858C-0.0412928 9.31015 0.0614572 17.2429 1.68491 24.8879C2.60966 29.2653 5.81546 33.7866 11.1996 38.3489C13.2751 40.1163 15.2479 41.4932 16.5631 42.3564C18.8442 43.8566 19.1935 44.0005 19.4812 44.0005C19.5018 44.0005 19.5223 44.0005 19.5429 44.0005C19.8306 44.0005 20.2005 43.8772 22.4815 42.3564C23.7762 41.4932 25.7695 40.0958 27.8451 38.3489C33.2292 33.7866 36.435 29.2653 37.3803 24.8879C39.0243 17.2429 39.127 9.31015 39.0859 6.26858ZM35.202 24.3947C33.4141 32.759 22.05 40.0547 19.5223 41.5754C16.9947 40.0547 5.67161 32.7796 3.88376 24.3947C2.30141 16.9757 2.19866 9.24849 2.23976 6.26858C2.23976 5.85755 2.54801 5.50818 2.93846 5.42598L19.1113 2.2611C19.2552 2.24055 19.3785 2.22 19.5223 2.22C19.6662 2.22 19.7895 2.24055 19.9333 2.2611L36.1473 5.44653C36.5583 5.52874 36.846 5.87811 36.846 6.28913C36.8871 9.26904 36.7843 16.9963 35.202 24.3947Z" fill="black"/>
<path fill-rule="evenodd" clip-rule="evenodd" d="M19.8727 10.3989C19.9549 8.98086 19.9754 7.93275 19.9138 7.52173C19.8316 6.96685 18.6397 7.00795 17.3244 7.62449C16.2353 8.13826 16.338 9.18637 16.338 9.51519C16.3586 9.98787 16.3791 10.6866 16.3791 11.5292C13.2555 13.0089 10.5224 15.3928 9.41269 16.5026C9.20719 16.7286 9.00169 17.0369 9.20719 17.1808C9.59764 17.4479 10.584 17.5712 10.8717 17.5712C12.5979 17.6329 13.646 16.2971 16.3997 14.8996C16.8107 14.6941 18.1259 14.0775 18.9274 13.8104C19.2151 13.7076 19.4411 13.646 19.6261 13.5843C22.7291 12.6184 27.3734 13.3788 27.1268 17.8179C26.8597 22.9556 22.1743 25.9767 17.6532 27.7646C18.0437 26.0383 18.4547 23.9832 18.7424 21.7226C19.0506 19.2975 19.3384 16.6053 19.5439 14.2214C18.3519 14.3447 17.2833 15.1873 16.3586 15.9683C16.338 17.9823 16.2558 20.1401 16.0709 22.0103C15.8859 23.9626 15.6393 26.2849 15.3722 28.5661C14.7762 28.7511 14.1803 28.936 13.6254 29.1004C11.7348 29.6348 11.6115 31.2583 12.2075 31.1555C13.2144 30.9911 14.1803 30.7856 15.105 30.5801C15.0639 30.8473 15.0228 31.1144 15.0023 31.3816C14.9201 32.0187 14.6735 33.2518 15.4749 33.1901C15.9681 33.1285 16.2969 32.7174 16.4819 32.1214C16.6257 31.6282 16.8312 30.95 17.0573 30.128C21.2701 28.9977 24.5786 27.3947 27.2912 24.9697C33.0041 19.9346 33.9083 7.7889 19.8727 10.3989Z" fill="black"/>
</g>
<defs>
<clipPath id="clip0">
<rect width="136" height="44" fill="white"/>
</clipPath>
</defs>
</svg>
