<svg width="48" height="48" viewBox="0 0 48 48" fill="none" xmlns="http://www.w3.org/2000/svg">
<circle cx="24" cy="24" r="23" fill="white" stroke="#E6E9EC" stroke-width="2"/>
<path d="M30 22.7273C30 27.1818 24 31 24 31C24 31 18 27.1818 18 22.7273C18 21.2083 18.6321 19.7516 19.7574 18.6775C20.8826 17.6034 22.4087 17 24 17C25.5913 17 27.1174 17.6034 28.2426 18.6775C29.3679 19.7516 30 21.2083 30 22.7273Z" stroke="#C5691C" stroke-width="2" stroke-linecap="round" stroke-linejoin="round"/>
<path d="M24 24.6364C25.1046 24.6364 26 23.7816 26 22.7273C26 21.6729 25.1046 20.8182 24 20.8182C22.8954 20.8182 22 21.6729 22 22.7273C22 23.7816 22.8954 24.6364 24 24.6364Z" stroke="#C5691C" stroke-width="2" stroke-linecap="round" stroke-linejoin="round"/>
</svg>
