<svg width="40" height="40" viewBox="0 0 40 40" fill="none" xmlns="http://www.w3.org/2000/svg">
<path d="M39 7H15C14.4 7 14 7.4 14 8V32C14 32.6 14.4 33 15 33H39C39.6 33 40 32.6 40 32V8C40 7.4 39.6 7 39 7ZM25 9H29V12.1L27.6 11.1C27.3 10.9 26.8 10.9 26.5 11.1L25.1 12.1V9H25ZM38 31H16V9H23V14C23 14.4 23.2 14.7 23.5 14.9C23.8 15.1 24.2 15.1 24.5 14.9L26.9 13.3L29.3 14.9C29.5 15 29.7 15.1 29.9 15.1C30.1 15.1 30.2 15.1 30.4 15C30.7 14.8 30.9 14.5 30.9 14.1V9H37.9V31H38Z" fill="#C5691C"/>
<path d="M9 13H1C0.4 13 0 13.4 0 14C0 14.6 0.4 15 1 15H9C9.6 15 10 14.6 10 14C10 13.4 9.6 13 9 13Z" fill="#31303E"/>
<path d="M9 19H3C2.4 19 2 19.4 2 20C2 20.6 2.4 21 3 21H9C9.6 21 10 20.6 10 20C10 19.4 9.6 19 9 19Z" fill="#31303E"/>
<path d="M9 25H5C4.4 25 4 25.4 4 26C4 26.6 4.4 27 5 27H9C9.6 27 10 26.6 10 26C10 25.4 9.6 25 9 25Z" fill="#31303E"/>
</svg>
