<svg width="553" height="414" viewBox="0 0 553 414" fill="none" xmlns="http://www.w3.org/2000/svg">
<g clip-path="url(#clip0)">
<path d="M211.927 161.086L13.502 199.049L-9.90475 278.159L200.805 236.739C200.805 236.739 264.21 179.996 211.927 161.086Z" fill="url(#paint0_linear)"/>
<path d="M297.829 346.58L186.8 291.829L21.353 317.024L31.9026 388.87L297.829 346.58Z" fill="url(#paint1_linear)"/>
<path d="M175.279 234.192L156.667 297.096L4.6423 320.631L24.7368 262.233L175.279 234.192Z" fill="url(#paint2_linear)"/>
</g>
<path d="M125.85 167.295H202.313L197.465 188.776L161.204 196.343L125.85 167.295Z" fill="url(#paint3_linear)"/>
<path d="M125.85 167.295H202.313L197.465 188.776L161.204 196.343L125.85 167.295Z" fill="url(#paint4_linear)"/>
<path d="M338.528 261.652L337.425 252.547L342.273 247.699C342.273 247.699 395.245 245.177 399.463 227.914L407.542 233.353L392.644 248.921L372.07 256.331L338.528 261.652Z" fill="#2E353D"/>
<path d="M338.529 261.652C361.271 257.947 397.177 249.946 400.921 236.033C404.469 222.79 377.549 211.714 367.971 208.246C366 207.536 363.833 208.167 362.532 209.822L326.429 258.42L316.023 255.622L359.891 198.944C361.665 196.698 364.66 195.83 367.341 196.816C380.465 201.585 416.45 216.129 412.115 235.757C408.134 253.769 366.631 259.642 338.135 263.268L338.529 261.652Z" fill="url(#paint5_linear)"/>
<path d="M367.301 196.816C364.621 195.831 361.625 196.698 359.852 198.944L318.94 251.799L317.127 251.326L360.995 194.688C362.768 192.441 365.724 191.613 368.444 192.559C384.88 198.314 416.372 212.345 412.312 234.141C414.361 215.301 380.032 201.467 367.301 196.816Z" fill="#607F93"/>
<path d="M132.394 188.302C133.694 188.775 163.176 190.785 179.769 179.198L174.645 195.988L140.119 196.895L132.394 188.302Z" fill="url(#paint6_linear)"/>
<path d="M325.089 187.829C349.053 180.853 400.803 173.522 418.343 172.655L390.122 187.238L340.066 203.043L325.089 187.829Z" fill="url(#paint7_linear)"/>
<path d="M302.504 171.276C304.16 168.083 305.303 164.536 305.776 160.752C308.101 143.055 295.686 126.817 277.989 124.491C260.292 122.166 244.053 134.581 241.728 152.278C241.215 156.062 241.413 159.767 242.161 163.275L302.504 171.276Z" fill="#EF5E42"/>
<path d="M292.46 169.996C300.009 165.236 302.27 155.257 297.51 147.707C292.749 140.158 282.77 137.897 275.22 142.657C267.671 147.418 265.41 157.397 270.17 164.946C274.931 172.496 284.91 174.757 292.46 169.996Z" fill="#C44028"/>
<path d="M296.911 156.661C297.095 151.201 292.817 146.625 287.357 146.441C281.897 146.257 277.321 150.534 277.137 155.995C276.953 161.455 281.23 166.031 286.691 166.215C292.151 166.399 296.727 162.121 296.911 156.661Z" fill="#0B706D"/>
<path d="M296.789 157.599C296.908 156.614 296.908 155.628 296.75 154.682C291.705 155.668 282.443 157.835 277.713 159.57C278.895 162.959 281.93 165.6 285.714 166.073C291.114 166.822 296.08 163.038 296.789 157.599Z" fill="white"/>
<path d="M287.014 167.177C286.541 167.177 286.068 167.137 285.595 167.098C279.643 166.309 275.465 160.831 276.254 154.919C276.963 149.558 281.575 145.499 287.014 145.499C287.487 145.499 287.96 145.538 288.433 145.578C294.384 146.366 298.562 151.844 297.774 157.757C297.064 163.117 292.453 167.177 287.014 167.177ZM287.014 147.43C282.599 147.43 278.816 150.741 278.224 155.155C277.594 160.003 281.023 164.496 285.871 165.127C286.265 165.166 286.659 165.206 287.053 165.206C291.468 165.206 295.251 161.895 295.842 157.481C296.473 152.633 293.044 148.14 288.196 147.509C287.802 147.469 287.408 147.43 287.014 147.43Z" fill="#66CCC7"/>
<path d="M213.626 115.465C220.681 120.471 241.452 135.369 269.436 167.295L232.899 165.245L213.626 115.465Z" fill="url(#paint8_linear)"/>
<path d="M352.993 220.031C356.304 215.419 381.489 195.515 410.143 189.248L418.342 172.655C418.342 172.655 347.081 189.761 329.463 198.787L334.666 222.435L352.993 220.031Z" fill="#2E353D"/>
<path d="M130.856 187.633C140.237 192.323 164.792 193.15 180.203 185.859L176.498 207.221C172.005 209.35 148.475 206.906 131.093 200.836L130.856 187.633Z" fill="#2E353D"/>
<path d="M212.602 114.48C218.159 119.84 234.319 136.828 254.223 164.102L189.387 181.839C189.387 181.839 198.61 158.703 190.175 139.587L212.602 114.48Z" fill="#2E353D"/>
<path d="M345.386 216.05C345.386 216.05 304.159 232.367 254.891 228.387C205.624 224.406 166.919 201.664 166.919 201.664C166.88 184.322 190.449 158.624 259.227 163.551C334.35 168.95 349.051 200.206 345.386 216.05Z" fill="url(#paint9_linear)"/>
<path d="M345.387 216.05C343.89 234.614 302.741 246.438 253.434 242.457C204.127 238.516 165.817 220.267 166.881 201.703C167.906 183.297 209.172 171.433 258.834 175.296C308.141 179.08 346.846 197.486 345.387 216.05Z" fill="url(#paint10_linear)"/>
<path d="M343.337 221.489C341.878 239.62 301.637 251.207 253.433 247.345C205.23 243.482 167.353 225.628 168.811 207.458C170.27 189.327 210.511 177.739 258.715 181.602C306.918 185.465 344.795 203.359 343.337 221.489Z" fill="url(#paint11_linear)"/>
<path d="M301.756 354.354C301.599 354.354 301.48 354.354 301.323 354.314C300.022 354.078 299.194 352.817 299.431 351.555L321.503 234.456C321.739 233.156 323 232.328 324.262 232.564C325.562 232.801 326.39 234.062 326.154 235.323L304.082 352.423C303.885 353.566 302.86 354.354 301.756 354.354Z" fill="#2E353D"/>
<path d="M297.065 356.522C296.907 356.522 296.789 356.522 296.631 356.482C295.331 356.246 294.503 354.984 294.739 353.684L316.811 236.979C317.048 235.678 318.309 234.85 319.61 235.087C320.91 235.323 321.738 236.585 321.502 237.885L299.43 354.59C299.193 355.733 298.208 356.522 297.065 356.522Z" fill="#526A7F"/>
<path d="M321.305 208.561C315.433 208.561 308.496 207.182 300.495 204.423C299.982 204.226 299.706 203.674 299.904 203.162C300.101 202.649 300.652 202.373 301.165 202.57C327.848 211.793 334.706 202.846 336.164 199.89C338.845 194.491 336.125 187.278 329.858 183.06C320.241 176.636 302.978 177.779 283.271 200.245C282.916 200.639 282.285 200.679 281.891 200.324C281.497 199.969 281.458 199.338 281.813 198.944C302.387 175.493 320.714 174.508 331.001 181.405C338.096 186.174 341.091 194.491 337.978 200.757C336.598 203.556 333.366 207.103 326.035 208.207C324.498 208.443 322.961 208.561 321.305 208.561Z" fill="#66CCC7"/>
<path d="M286.108 205.999C285.832 205.999 285.596 205.881 285.399 205.723C271.88 192.007 262.775 178.725 258.282 166.27C253.513 153.145 255.129 144.238 257.297 139.035C260.371 131.704 266.717 127.132 273.811 127.132C279.763 127.132 285.438 130.364 289.419 136.039C293.715 142.188 296.041 151.017 296.041 161.58C296.08 174.035 293.045 188.775 287.054 205.329C286.936 205.645 286.66 205.881 286.345 205.96C286.227 205.999 286.148 205.999 286.108 205.999ZM273.772 129.103C267.465 129.103 261.829 133.202 259.07 139.784C256.587 145.696 251.266 167.61 285.675 203.162C295.962 173.995 296.75 149.992 287.764 137.143C284.098 131.98 279.132 129.103 273.772 129.103Z" fill="#66CCC7"/>
<path d="M345.388 329.602L210.592 301.579L228.683 184.361L354.414 215.735L345.388 329.602Z" fill="#FA9745"/>
<path d="M292.612 214.434C292.296 214.71 291.902 215.065 291.429 215.538C272.629 233.116 248.074 244.94 218.434 250.734L218.119 252.784C218.198 252.784 218.237 252.784 218.316 252.784C237.669 249.04 255.09 242.694 270.146 233.905C282.246 226.81 289.616 219.952 292.769 216.996C293.242 216.562 293.636 216.208 293.912 215.932C294.307 215.577 294.346 214.946 293.991 214.552C293.676 214.119 293.045 214.079 292.612 214.434Z" fill="url(#paint12_linear)"/>
<path d="M272.589 359.635L153.204 338.155L210.591 301.578L345.387 329.602L272.589 359.635Z" fill="#E68434"/>
<path d="M238.457 300.593L217.41 296.691L220.879 275.565L242.005 279.507L238.457 300.593Z" fill="white"/>
<path d="M242.871 275.605L221.784 271.663L225.292 250.537L246.418 254.479L242.871 275.605Z" fill="white"/>
<path d="M292.06 309.146C291.587 309.146 291.153 308.791 291.074 308.318C290.917 307.964 289.261 305.914 270.382 303.116C263.366 302.091 255.011 301.066 245.512 300.16C245.039 300.12 244.763 300.081 244.645 300.081C244.093 300.002 243.699 299.529 243.778 298.977C243.856 298.425 244.329 298.031 244.881 298.11C244.96 298.11 245.275 298.15 245.709 298.189C255.405 299.135 263.958 300.16 271.092 301.224C277.201 302.13 282.088 303.076 285.635 303.983C291.823 305.599 292.848 306.899 293.045 308.003C293.124 308.555 292.769 309.028 292.217 309.146C292.139 309.146 292.099 309.146 292.06 309.146Z" fill="white"/>
<path d="M285.399 294.563C285.241 294.563 285.123 294.563 285.005 294.563C284.098 294.484 283.349 294.05 282.955 293.38C282.285 293.499 281.694 293.538 281.3 293.499C280.63 293.459 280.078 293.144 279.723 292.632C279.369 292.119 279.25 291.449 279.29 290.779C277.556 291.646 274.836 292.513 271.446 291.883C269.318 291.489 268.293 290.543 267.82 289.597C265.968 290.346 264.194 290.819 262.736 290.937C262.184 290.976 261.711 290.582 261.672 290.03C261.632 289.478 262.026 289.005 262.578 288.966C263.997 288.848 265.692 288.335 267.426 287.626C267.505 284.906 269.87 281.674 272.511 279.664C274.797 277.891 276.964 277.339 278.423 278.127C279.408 278.64 279.842 279.546 279.605 280.61C279.093 283.172 274.402 286.601 269.673 288.808C270.027 289.36 270.737 289.754 271.84 289.951C276.688 290.819 280.039 288.06 280.078 288.02C280.433 287.744 280.906 287.705 281.26 287.941C281.615 288.178 281.773 288.651 281.655 289.045C281.3 290.07 281.26 291.213 281.418 291.449H281.458C281.852 291.449 282.285 291.41 282.719 291.37C282.876 290.621 283.271 289.873 283.901 289.478C284.571 289.045 285.36 289.084 285.99 289.557C286.621 290.03 286.857 290.7 286.621 291.37C286.424 291.843 285.99 292.237 285.438 292.553C286.187 292.553 287.33 292.198 288.552 291.843C291.272 291.016 294.701 289.951 297.538 291.962C297.972 292.277 298.09 292.907 297.775 293.341C297.46 293.775 296.829 293.893 296.395 293.578C294.346 292.119 291.548 292.986 289.104 293.735C287.685 294.208 286.463 294.563 285.399 294.563ZM276.885 279.783C276.176 279.783 275.033 280.216 273.654 281.28C271.643 282.817 270.067 284.985 269.554 286.68C273.575 284.67 277.319 281.832 277.634 280.256C277.674 280.098 277.674 280.058 277.437 279.901C277.28 279.822 277.083 279.783 276.885 279.783Z" fill="white"/>
<path d="M263.839 298.347C263.445 298.347 263.13 298.189 262.893 297.913C262.302 297.243 262.696 296.415 263.09 295.548C263.13 295.43 263.208 295.272 263.287 295.154C262.499 295.272 261.317 295.588 260.489 295.785C258.794 296.218 257.217 296.612 256.232 296.573C255.286 296.534 254.813 296.1 254.577 295.745C254.104 294.996 254.301 294.05 254.616 293.262C254.34 293.302 254.064 293.38 253.788 293.42C252.133 293.735 249.886 294.169 248.113 294.011C246.103 293.814 245.866 292.632 245.866 292.119C245.866 290.661 247.719 288.927 248.783 288.808C249.335 288.73 249.808 289.124 249.886 289.675C249.965 290.188 249.571 290.661 249.059 290.779C248.704 290.897 248.034 291.607 247.876 292.001C247.955 292.04 248.113 292.08 248.31 292.08C249.808 292.237 251.936 291.804 253.434 291.528C255.286 291.173 256.035 291.016 256.587 291.489C256.823 291.686 256.981 292.001 256.981 292.316C256.981 292.671 256.863 293.026 256.666 293.499C256.547 293.775 256.35 294.326 256.311 294.642H256.35C257.06 294.642 258.636 294.248 260.055 293.893C263.09 293.144 264.43 292.829 265.219 293.499C265.534 293.775 265.652 294.169 265.613 294.602C265.534 295.193 265.219 295.824 264.982 296.376C264.982 296.415 264.943 296.455 264.943 296.494C265.1 296.612 265.219 296.77 265.297 297.007C265.455 297.519 265.179 298.071 264.627 298.228C264.273 298.307 264.036 298.347 263.839 298.347Z" fill="white"/>
<path d="M268.885 296.652C268.491 296.652 268.136 296.455 267.979 296.06C267.742 295.548 267.979 294.996 268.451 294.76C269.003 294.523 271.881 293.301 272.945 294.957C273.26 295.43 273.102 296.021 272.669 296.336C272.235 296.612 271.644 296.533 271.329 296.1C271.053 295.982 270.028 296.218 269.24 296.573C269.161 296.652 269.043 296.652 268.885 296.652Z" fill="white"/>
<path d="M228.682 184.361L173.502 231.934L153.204 338.155L210.591 301.579L228.682 184.361Z" fill="#C5691C"/>
<path d="M328.282 327.001C328.203 327.001 328.124 327.001 328.045 326.961C327.533 326.843 327.218 326.331 327.336 325.818C329.622 316.714 332.026 306.072 332.499 296.258C333.958 265.83 316.221 241.709 301.953 222.317C296.199 214.513 291.233 207.773 288.198 201.585C287.961 201.112 288.158 200.56 288.631 200.324C289.104 200.087 289.656 200.284 289.893 200.757C292.849 206.788 297.775 213.488 303.451 221.213C317.877 240.842 335.849 265.239 334.352 296.337C333.879 306.308 331.435 317.068 329.149 326.252C329.11 326.685 328.716 327.001 328.282 327.001Z" fill="url(#paint13_linear)"/>
<path d="M331.08 393.295C330.607 393.295 330.213 392.94 330.095 392.467C325.247 364.641 329.267 346.353 333.169 328.695C335.376 318.645 337.701 308.239 338.253 296.257C339.672 266.697 319.768 242.339 303.766 222.79C296.711 214.158 290.641 206.709 287.37 200.087C287.133 199.614 287.33 199.023 287.803 198.786C288.276 198.55 288.867 198.747 289.104 199.22C292.257 205.645 298.287 213.015 305.264 221.568C321.463 241.393 341.643 266.106 340.185 296.376C339.593 308.555 337.268 319.039 335.061 329.168C331.198 346.629 327.217 364.72 331.986 392.191C332.065 392.743 331.711 393.255 331.198 393.334C331.198 393.295 331.119 393.295 331.08 393.295Z" fill="#3AAFAC"/>
<path d="M227.5 352.501C227.145 352.501 226.791 352.304 226.633 351.95C226.396 351.477 226.554 350.885 227.066 350.609C239.876 343.988 274.087 318.645 278.817 315.058C279.251 314.743 279.881 314.822 280.197 315.255C280.512 315.689 280.433 316.319 280 316.635C279.645 316.91 242.162 344.973 227.973 352.344C227.776 352.462 227.618 352.501 227.5 352.501Z" fill="#0B706D"/>
<path d="M216.819 350.57C216.385 350.57 215.991 350.294 215.873 349.861C215.715 349.348 216.03 348.796 216.582 348.639C259.228 337.051 286.897 325.976 292.533 318.172C292.848 317.738 293.479 317.62 293.912 317.935C294.346 318.251 294.464 318.881 294.149 319.315C288.197 327.552 260.844 338.667 217.134 350.531C216.976 350.57 216.897 350.57 216.819 350.57Z" fill="#0B706D"/>
<path d="M279.368 316.871C279.329 316.871 279.29 316.871 279.211 316.871C278.659 316.792 278.304 316.28 278.383 315.767C281.457 294.681 287.409 266.579 292.217 244.034C296.513 223.775 300.218 206.315 299.785 203.398C299.706 202.846 300.061 202.373 300.613 202.294C301.164 202.216 301.637 202.57 301.716 203.122C302.189 206.236 299.272 220.149 294.109 244.467C289.34 267.012 283.389 295.075 280.314 316.083C280.275 316.516 279.881 316.871 279.368 316.871Z" fill="#3AAFAC"/>
<path d="M293.281 319.748C293.203 319.748 293.124 319.748 293.084 319.709C292.572 319.591 292.217 319.078 292.335 318.527C302.544 271.979 297.775 233.432 277.279 197.171C277.003 196.698 277.161 196.106 277.634 195.831C278.107 195.555 278.698 195.712 278.974 196.185C288.867 213.685 295.016 231.382 297.775 250.34C300.888 271.584 299.706 294.011 294.267 318.921C294.149 319.433 293.754 319.748 293.281 319.748Z" fill="#3AAFAC"/>
<path d="M164.398 279.625L212.72 286.641L228.683 184.361L173.503 231.934L164.398 279.625Z" fill="#C5691C"/>
<path d="M166.92 333.228C166.763 333.228 166.605 333.228 166.487 333.189C165.186 332.952 164.358 331.691 164.595 330.39L187.061 213.527C187.889 209.271 190.451 204.778 193.84 201.782C199.161 197.052 206.059 194.412 214.848 193.663C215.676 193.584 216.424 193.939 216.897 194.53L212.01 198.787C205.822 199.772 200.895 201.94 197.033 205.369C194.471 207.655 192.421 211.202 191.791 214.434L169.325 331.297C169.009 332.44 168.024 333.228 166.92 333.228Z" fill="#526A7F"/>
<path d="M170.585 330.705C170.428 330.705 170.31 330.705 170.152 330.666C168.851 330.43 168.024 329.168 168.26 327.907L190.095 212.109C190.963 207.615 193.446 203.713 197.072 201.073C200.698 198.471 205.979 195.397 214.966 194.333C215.596 194.254 216.148 194.451 216.621 194.766L210.63 199.93C205.585 201.191 202.235 203.201 199.831 204.935C197.19 206.827 195.377 209.704 194.746 212.976L172.911 328.774C172.714 329.917 171.689 330.705 170.585 330.705Z" fill="#2E353D"/>
<path d="M201.092 340.598C200.935 340.598 200.777 340.598 200.58 340.559L166.408 333.188C165.107 332.913 164.319 331.651 164.595 330.351C164.871 329.05 166.132 328.262 167.433 328.538L201.605 335.908C202.905 336.184 203.694 337.445 203.418 338.746C203.142 339.81 202.157 340.598 201.092 340.598Z" fill="#526A7F"/>
<path d="M204.757 338.234C204.6 338.234 204.403 338.234 204.245 338.194L170.073 330.627C168.772 330.351 167.984 329.09 168.26 327.789C168.536 326.488 169.797 325.7 171.098 325.976L205.27 333.504C206.57 333.78 207.359 335.041 207.083 336.342C206.807 337.485 205.822 338.234 204.757 338.234Z" fill="#2E353D"/>
<path d="M297.066 356.522C296.908 356.522 296.751 356.522 296.593 356.482L262.421 349.506C261.12 349.23 260.293 347.969 260.569 346.708C260.845 345.407 262.106 344.579 263.367 344.855L297.539 351.831C298.84 352.107 299.667 353.368 299.392 354.63C299.194 355.733 298.17 356.522 297.066 356.522Z" fill="#526A7F"/>
<path d="M301.755 354.354C301.597 354.354 301.44 354.354 301.282 354.314L266.085 346.983C264.785 346.708 263.957 345.446 264.233 344.185C264.509 342.884 265.77 342.057 267.031 342.333L302.188 349.664C303.489 349.939 304.317 351.201 304.041 352.462C303.844 353.566 302.859 354.354 301.755 354.354Z" fill="#2E353D"/>
<path d="M88.2106 307.767C87.777 307.767 87.3434 307.451 87.2646 307.018C85.6486 300.16 86.634 293.853 90.2207 288.296C102.754 268.628 144.967 259.878 189.662 250.577C239.324 240.25 290.681 229.608 299.903 203.201C300.101 202.689 300.652 202.413 301.165 202.61C301.677 202.807 301.953 203.359 301.756 203.871C292.139 231.343 240.231 242.103 190.056 252.547C145.795 261.731 103.976 270.441 91.8761 289.4C88.5653 294.563 87.6982 300.199 89.1959 306.624C89.3141 307.136 88.9988 307.688 88.447 307.806C88.3682 307.727 88.2894 307.767 88.2106 307.767Z" fill="#3AAFAC"/>
<path d="M442.107 152.396H528.779L527.202 133.675L476.713 112.588L455.429 108.844L442.107 152.396Z" fill="url(#paint14_linear)"/>
<path d="M523.025 142.228C526.73 153.066 497.091 180.853 435.92 178.094L439.231 194.806L483.296 187.514L519.596 170.566L530.711 148.691L523.025 142.228Z" fill="#2E353D"/>
<path d="M381.766 100.448V105.691L384.13 105.533L381.766 100.448Z" fill="#607F93"/>
<path d="M434.384 196.303C461.619 195.712 545.965 182.627 537.491 139.626C531.816 110.854 456.968 88.6242 384.052 102.695C381.333 103.207 381.175 106.163 382.831 107.504C406.597 126.816 418.934 158.387 418.303 174.035L433.596 172.458C434.108 159.885 417.318 129.654 406.479 116.096C405.415 114.756 406.243 112.785 407.937 112.627C458.151 108.252 519.637 122.717 524.209 145.853C531.027 180.42 463.196 190.904 441.321 191.377L434.384 196.303Z" fill="url(#paint15_linear)"/>
<path d="M382.831 102.971C382.87 103.01 382.949 103.05 382.988 103.089C383.304 102.892 383.658 102.774 384.052 102.695C456.968 88.5848 531.816 110.854 537.491 139.626C537.728 140.848 537.886 142.07 538.004 143.252C537.767 139.744 537.413 137.458 536.703 134.66C529.333 105.888 456.968 84.0522 384.052 98.1625C381.333 98.6748 381.175 101.631 382.831 102.971Z" fill="#607F93"/>
<path d="M432.569 222.396C432.53 222.396 432.49 222.396 432.451 222.396C431.15 222.317 430.126 221.213 430.204 219.913L433.831 146.76C433.909 145.459 435.013 144.435 436.314 144.514C437.614 144.592 438.639 145.696 438.56 146.997L434.934 220.149C434.895 221.41 433.831 222.396 432.569 222.396Z" fill="#607F93"/>
<path d="M460.108 184.206C460.268 176.893 448.577 170.707 433.996 170.388C419.414 170.069 407.464 175.738 407.304 183.051C407.144 190.363 418.835 196.55 433.417 196.869C447.998 197.188 459.949 191.518 460.108 184.206Z" fill="white"/>
<path d="M459.855 196.412C460.015 189.1 448.324 182.913 433.742 182.595C419.161 182.276 407.21 187.945 407.05 195.258C406.89 202.57 418.581 208.757 433.163 209.075C447.744 209.394 459.695 203.725 459.855 196.412Z" fill="#B8CCBC"/>
<path d="M434.974 227.519C433.949 227.677 432.885 227.716 431.821 227.677C422.637 227.243 415.543 219.4 416.016 210.217L418.223 173.01C418.656 163.826 426.5 156.732 435.683 157.205C444.867 157.638 451.961 165.482 451.488 174.665L449.281 211.872C448.847 219.952 442.699 226.416 434.974 227.519Z" fill="white"/>
<path d="M416.883 192.717C426.736 189.8 442.502 192.598 450.03 198.944L450.74 186.568L425.199 185.938L416.883 192.717Z" fill="#607F93"/>
<path d="M433.752 182.627C419.169 182.311 407.187 187.987 407.029 195.279C406.99 197.841 408.409 200.284 410.892 202.373C410.695 201.703 410.576 201.073 410.576 200.363C410.734 194.017 421.061 189.13 433.712 189.406C446.364 189.682 456.494 195.042 456.336 201.388C456.336 201.94 456.218 202.491 456.06 203.043C458.425 201.112 459.765 198.865 459.844 196.422C460.041 189.091 448.335 182.942 433.752 182.627Z" fill="white"/>
<path d="M433.989 170.409C440.729 170.566 446.877 171.946 451.489 174.153C439.625 166.428 420.588 167.925 419.169 168.241C418.696 169.62 418.381 171.118 418.263 172.655C422.677 171.157 428.116 170.29 433.989 170.409Z" fill="#607F93"/>
<path d="M436.197 151.175C438.569 151.175 440.493 149.251 440.493 146.878C440.493 144.506 438.569 142.582 436.197 142.582C433.824 142.582 431.9 144.506 431.9 146.878C431.9 149.251 433.824 151.175 436.197 151.175Z" fill="#607F93"/>
<path d="M433.555 170.408C433.279 166.979 432.057 162.604 430.205 157.796C423.859 159.648 419.011 165.206 418.302 172.103C418.302 172.3 418.302 172.458 418.302 172.655C422.598 171.157 427.879 170.33 433.555 170.408Z" fill="url(#paint16_linear)"/>
<path d="M545.373 142.227C545.373 142.227 545.373 142.109 545.373 141.873C545.373 141.636 545.373 141.281 545.373 140.848C545.373 139.941 545.254 138.641 545.018 136.985C544.742 135.33 544.308 133.32 543.52 131.073C542.732 128.827 541.628 126.383 540.091 123.9C539.894 123.584 539.697 123.269 539.5 122.954C539.421 122.796 539.303 122.639 539.185 122.481C539.066 122.323 538.948 122.166 538.869 122.008C538.436 121.377 537.963 120.747 537.529 120.116C537.017 119.485 536.504 118.855 535.992 118.224C535.756 117.909 535.44 117.594 535.164 117.278C534.888 116.963 534.613 116.648 534.297 116.332C531.972 113.889 529.292 111.445 526.257 109.277C525.863 109.001 525.508 108.725 525.114 108.449C524.72 108.174 524.325 107.937 523.931 107.661C523.143 107.149 522.315 106.636 521.527 106.085C520.699 105.572 519.832 105.139 519.005 104.626C518.177 104.153 517.31 103.641 516.403 103.247C515.536 102.813 514.63 102.38 513.763 101.907L513.092 101.591L512.422 101.276L511.043 100.685C510.136 100.291 509.191 99.8966 508.284 99.5025L505.486 98.4383C504.54 98.0836 503.594 97.7289 502.648 97.4135C501.702 97.0982 500.756 96.7829 499.771 96.507C498.825 96.1917 497.879 95.8764 496.893 95.6005C495.947 95.3246 494.962 95.0881 494.016 94.8122C493.07 94.5363 492.124 94.2998 491.178 94.0239C490.232 93.7874 489.286 93.5904 488.34 93.3539C487.395 93.1174 486.449 92.9203 485.503 92.6839C485.03 92.5656 484.557 92.4474 484.084 92.3685C483.611 92.2897 483.138 92.2109 482.704 92.0926C480.852 91.7379 478.999 91.3832 477.226 91.0679C475.413 90.792 473.678 90.5161 471.944 90.2402C471.077 90.1219 470.249 89.9643 469.422 89.846C468.594 89.7278 467.766 89.649 466.939 89.5307C465.323 89.3337 463.746 89.176 462.248 88.9789C460.751 88.7819 459.292 88.703 457.913 88.5454C456.533 88.4271 455.233 88.3089 454.011 88.2301C451.567 87.9936 449.399 87.9148 447.626 87.7965C444.078 87.5994 442.068 87.4812 442.068 87.4812C442.068 87.4812 444.078 87.5206 447.626 87.6389C449.399 87.7177 451.528 87.7177 454.011 87.8753C455.233 87.9542 456.533 88.033 457.952 88.1118C459.332 88.1907 460.79 88.2695 462.288 88.4271C463.786 88.5454 465.362 88.703 467.017 88.8607C467.845 88.9395 468.673 89.0183 469.501 89.0972C470.328 89.2154 471.195 89.2942 472.062 89.4125C473.797 89.649 475.57 89.846 477.383 90.0825C479.196 90.3584 481.049 90.6737 482.901 90.9891C483.374 91.0679 483.847 91.1467 484.32 91.2255C484.793 91.3044 485.266 91.4226 485.739 91.5014C486.685 91.6985 487.631 91.8956 488.616 92.0926C489.562 92.2897 490.548 92.4868 491.494 92.6839C492.44 92.9203 493.425 93.1568 494.41 93.3933C495.396 93.6298 496.341 93.8663 497.327 94.1028C498.312 94.3392 499.258 94.6546 500.244 94.9305C501.229 95.2064 502.175 95.5217 503.16 95.7976C504.146 96.1129 505.091 96.4676 506.037 96.7829L508.915 97.7683C509.861 98.1624 510.806 98.5171 511.752 98.9113L513.171 99.4631L513.881 99.739L514.551 100.054C515.457 100.488 516.403 100.921 517.31 101.316C518.216 101.71 519.123 102.222 519.99 102.695C520.857 103.168 521.764 103.641 522.631 104.114C523.458 104.626 524.326 105.139 525.153 105.651C525.547 105.927 525.981 106.163 526.375 106.439C526.769 106.715 527.163 106.991 527.557 107.267C530.75 109.435 533.627 111.878 536.11 114.401C536.426 114.716 536.741 115.032 537.017 115.347C537.332 115.662 537.647 115.978 537.923 116.293C538.475 116.963 539.027 117.594 539.579 118.224C540.091 118.894 540.564 119.564 541.076 120.195C541.195 120.353 541.313 120.51 541.431 120.668C541.549 120.825 541.668 121.023 541.747 121.18C541.983 121.496 542.18 121.85 542.377 122.166C544.072 124.806 545.333 127.408 546.24 129.812C547.146 132.216 547.698 134.384 548.053 136.236C548.408 138.049 548.526 139.508 548.565 140.533C548.605 141.045 548.605 141.439 548.605 141.676C548.605 141.912 548.605 142.03 548.605 142.03C548.605 142.937 547.895 143.686 546.949 143.725C546.043 143.725 545.294 143.016 545.254 142.07C545.373 142.267 545.373 142.267 545.373 142.227Z" fill="white"/>
<path d="M315.037 141.281C315.037 141.281 315.037 141.163 315.037 140.927C315.037 140.69 315.037 140.296 315.077 139.784C315.116 138.798 315.274 137.301 315.589 135.488C315.944 133.675 316.496 131.467 317.402 129.063C318.309 126.659 319.609 124.058 321.265 121.417C321.462 121.101 321.698 120.747 321.895 120.431C322.013 120.274 322.132 120.077 322.211 119.919C322.329 119.761 322.447 119.604 322.565 119.446C323.038 118.776 323.551 118.145 324.063 117.475C324.615 116.845 325.167 116.175 325.718 115.544C325.994 115.189 326.31 114.913 326.625 114.598C326.94 114.283 327.256 113.968 327.531 113.652C330.054 111.13 332.892 108.686 336.084 106.518C336.478 106.242 336.873 105.966 337.267 105.691C337.661 105.415 338.094 105.178 338.489 104.902C339.316 104.39 340.144 103.878 341.011 103.365C341.878 102.892 342.745 102.419 343.652 101.946C344.519 101.473 345.425 101 346.332 100.567C347.238 100.133 348.145 99.6997 349.091 99.3055L349.761 98.9902L350.47 98.7143L351.889 98.1625C352.835 97.7684 353.781 97.4136 354.727 97.0195L357.604 96.0341C358.55 95.7188 359.536 95.3641 360.482 95.0488C361.467 94.7729 362.413 94.4576 363.398 94.1817C364.384 93.9058 365.33 93.5905 366.315 93.354C367.3 93.1175 368.286 92.881 369.232 92.6445C370.217 92.408 371.163 92.1716 372.148 91.9351C373.133 91.738 374.079 91.5409 375.025 91.3439C375.971 91.1468 376.957 90.9497 377.903 90.7527C378.376 90.6738 378.849 90.5556 379.322 90.4768C379.794 90.3979 380.267 90.3191 380.74 90.2403C382.632 89.925 384.445 89.6491 386.258 89.3338C388.071 89.0973 389.845 88.8608 391.579 88.6637C392.446 88.5455 393.314 88.4666 394.141 88.3484C394.969 88.2696 395.797 88.1907 396.624 88.1119C398.24 87.9543 399.817 87.836 401.354 87.6784C402.852 87.5207 404.31 87.4419 405.69 87.363C407.069 87.2842 408.37 87.2054 409.631 87.1266C412.075 86.9689 414.242 86.9295 416.016 86.8901C419.563 86.7718 421.573 86.7324 421.573 86.7324C421.573 86.7324 419.563 86.8507 416.016 87.0477C414.242 87.166 412.114 87.2054 409.631 87.4419C408.409 87.5601 407.108 87.6389 405.729 87.7572C404.349 87.8754 402.891 87.9937 401.393 88.1907C399.896 88.3484 398.319 88.5455 396.703 88.7425C395.875 88.8608 395.048 88.9396 394.22 89.0579C393.392 89.1761 392.525 89.2943 391.698 89.452C389.963 89.7279 388.229 89.9644 386.416 90.2797C384.642 90.6344 382.79 90.9497 380.938 91.3045C380.465 91.3833 379.992 91.4621 379.558 91.5804C379.085 91.6592 378.612 91.7774 378.139 91.8957C377.193 92.0927 376.247 92.3292 375.301 92.5657C374.355 92.8022 373.409 92.9993 372.463 93.2357C371.518 93.5116 370.572 93.7481 369.626 94.024C368.68 94.2999 367.694 94.5364 366.748 94.8123C365.803 95.0882 364.857 95.4035 363.871 95.7188C362.925 96.0341 361.979 96.3495 360.994 96.6254C360.048 96.9407 359.102 97.3348 358.156 97.6501L355.358 98.7143C354.451 99.1084 353.505 99.5026 352.599 99.8967L351.219 100.488L350.549 100.803L349.879 101.119C348.973 101.552 348.106 101.986 347.238 102.459C346.332 102.892 345.504 103.365 344.637 103.838C343.809 104.311 342.942 104.784 342.115 105.296C341.326 105.809 340.499 106.321 339.71 106.873C339.316 107.149 338.922 107.385 338.528 107.661C338.134 107.937 337.779 108.213 337.385 108.489C334.35 110.657 331.67 113.061 329.344 115.544C329.069 115.859 328.753 116.175 328.477 116.49C328.201 116.805 327.926 117.081 327.65 117.436C327.137 118.067 326.625 118.697 326.113 119.328C325.64 119.958 325.206 120.629 324.772 121.22C324.654 121.377 324.536 121.535 324.457 121.693C324.339 121.85 324.26 122.008 324.142 122.166C323.945 122.481 323.748 122.796 323.551 123.112C322.053 125.634 320.91 128.078 320.122 130.285C319.333 132.532 318.9 134.542 318.624 136.197C318.348 137.852 318.269 139.193 318.269 140.06C318.269 140.493 318.269 140.848 318.269 141.084C318.269 141.321 318.269 141.439 318.269 141.439C318.269 142.346 317.56 143.095 316.614 143.134C315.707 143.134 314.958 142.424 314.919 141.479C315.037 141.321 315.037 141.321 315.037 141.281Z" fill="white"/>
<path d="M549.512 124.136C549.512 124.136 549.473 123.9 549.394 123.466C549.394 123.427 549.354 123.348 549.354 123.309C549.354 123.269 549.315 123.19 549.315 123.151C549.275 123.033 549.275 122.914 549.236 122.796C549.197 122.56 549.078 122.205 548.96 121.85C548.724 121.141 548.369 120.234 547.857 119.249C547.62 118.737 547.305 118.224 546.989 117.712C546.674 117.199 546.319 116.608 545.925 116.056C545.531 115.465 545.098 114.913 544.664 114.283C544.191 113.692 543.718 113.061 543.206 112.47C542.181 111.248 540.999 109.987 539.698 108.765C539.067 108.134 538.397 107.543 537.727 106.912C537.018 106.321 536.348 105.69 535.599 105.139C534.141 103.956 532.603 102.853 531.066 101.749C530.278 101.237 529.49 100.685 528.662 100.173C528.268 99.936 527.874 99.6601 527.44 99.4237C527.046 99.1872 526.612 98.9507 526.218 98.7142C524.602 97.7683 522.947 96.9012 521.37 96.0735C520.582 95.6793 519.754 95.2852 519.005 94.9305C518.217 94.5757 517.429 94.221 516.68 93.9057C515.931 93.5904 515.182 93.2751 514.473 92.9597C513.763 92.6444 513.054 92.4079 512.384 92.132C511.714 91.8562 511.083 91.6197 510.453 91.4226C509.822 91.1861 509.231 90.989 508.679 90.792C507.575 90.4372 506.59 90.1219 505.802 89.846C504.186 89.3731 503.279 89.0972 503.279 89.0972C503.279 89.0972 504.225 89.3337 505.841 89.7278C506.669 89.9249 507.654 90.2008 508.797 90.5161C509.349 90.6737 509.98 90.8708 510.61 91.0285C511.241 91.2255 511.911 91.4226 512.581 91.6591C513.251 91.8956 514 92.0926 514.709 92.3685C515.458 92.6444 516.207 92.9203 516.995 93.1962C517.784 93.5115 518.572 93.7874 519.36 94.1028C520.148 94.4575 520.976 94.7728 521.804 95.1275C523.459 95.8764 525.154 96.6647 526.849 97.5318C527.282 97.7683 527.716 97.9653 528.11 98.2018C528.544 98.4383 528.938 98.6748 529.371 98.9113C530.238 99.3842 531.066 99.8966 531.894 100.37C533.549 101.394 535.205 102.459 536.742 103.602C537.53 104.153 538.279 104.745 539.028 105.336C539.737 105.927 540.486 106.518 541.196 107.109C542.575 108.292 543.876 109.553 545.058 110.775C545.649 111.366 546.201 111.997 546.714 112.627C547.226 113.258 547.738 113.849 548.172 114.44C548.645 115.032 549.039 115.623 549.433 116.175C549.788 116.766 550.182 117.318 550.458 117.83C551.089 118.894 551.561 119.88 551.916 120.747C552.074 121.18 552.232 121.535 552.35 121.929C552.389 122.126 552.468 122.284 552.507 122.441C552.547 122.52 552.547 122.599 552.586 122.678C552.586 122.757 552.626 122.796 552.626 122.836C552.744 123.269 552.783 123.506 552.783 123.506C552.98 124.412 552.429 125.279 551.522 125.516C550.616 125.713 549.748 125.161 549.512 124.255C549.551 124.176 549.512 124.176 549.512 124.136Z" fill="white"/>
<path d="M347.041 110.263C347.041 110.263 346.844 110.381 346.411 110.578C346.017 110.775 345.425 111.13 344.716 111.563C344.361 111.8 343.967 112.036 343.534 112.352C343.139 112.667 342.666 112.982 342.193 113.337C341.287 114.046 340.262 114.914 339.198 115.899C338.646 116.372 338.134 116.924 337.582 117.475C337.07 118.067 336.518 118.618 335.966 119.249C334.902 120.51 333.838 121.89 332.813 123.348C331.788 124.806 330.882 126.422 329.975 128.078C329.108 129.733 328.359 131.507 327.689 133.281C327.019 135.054 326.507 136.907 326.073 138.68C325.915 139.587 325.679 140.493 325.561 141.4C325.482 141.833 325.442 142.306 325.364 142.74C325.324 143.173 325.285 143.646 325.206 144.08C325.167 144.316 325.167 144.514 325.127 144.75C325.127 144.986 325.088 145.184 325.088 145.42C325.048 145.854 325.048 146.287 325.009 146.721C324.969 147.588 324.97 148.416 324.97 149.204C325.009 149.992 325.009 150.78 325.088 151.569C325.167 152.318 325.206 153.066 325.324 153.736C325.442 154.446 325.521 155.116 325.6 155.747C325.718 156.377 325.837 156.968 325.955 157.52C326.073 158.072 326.191 158.584 326.31 159.097C326.428 159.57 326.546 160.003 326.625 160.397C327.098 161.974 327.374 162.841 327.374 162.841L327.413 162.92C327.689 163.787 327.177 164.733 326.31 165.009C325.442 165.285 324.497 164.772 324.221 163.905C324.221 163.866 324.221 163.826 324.181 163.826C324.181 163.826 323.945 162.841 323.511 161.146C323.432 160.713 323.314 160.24 323.235 159.727C323.117 159.215 322.999 158.663 322.959 158.033C322.881 157.441 322.762 156.811 322.683 156.101C322.605 155.431 322.565 154.722 322.486 153.973C322.447 153.224 322.408 152.436 322.368 151.647C322.368 150.859 322.368 149.992 322.368 149.164C322.408 148.297 322.447 147.43 322.526 146.524C322.565 146.09 322.644 145.617 322.683 145.184C322.723 144.947 322.723 144.711 322.762 144.514C322.802 144.277 322.841 144.041 322.881 143.843C322.959 143.371 323.038 142.937 323.117 142.464C323.196 141.991 323.314 141.518 323.393 141.084C323.551 140.139 323.866 139.232 324.102 138.286C324.654 136.434 325.285 134.542 326.073 132.729C326.861 130.916 327.728 129.142 328.714 127.487C329.699 125.831 330.724 124.255 331.867 122.796C332.971 121.338 334.114 119.998 335.296 118.776C335.848 118.146 336.478 117.594 337.03 117.042C337.621 116.53 338.173 115.978 338.725 115.544C339.829 114.598 340.932 113.81 341.878 113.14C342.351 112.825 342.824 112.509 343.258 112.233C343.691 111.957 344.085 111.721 344.479 111.524C345.228 111.13 345.82 110.814 346.214 110.617C346.805 110.381 347.041 110.263 347.041 110.263Z" fill="white"/>
<path d="M203.144 77.1548L230.182 31.198L277.715 53.6246L296.87 77.1548H203.144Z" fill="url(#paint17_linear)"/>
<path d="M191.28 77.1549L159.63 18.9009L102.795 37.9379L85.8076 71.7157L99.9967 77.1549H191.28Z" fill="url(#paint18_linear)"/>
<path d="M112.885 99.3057C124.433 93.8271 155.925 86.5355 180.795 92.29L170.272 98.8721L112.885 99.3057Z" fill="url(#paint19_linear)"/>
<path d="M97.513 53.6248C96.37 72.11 118.245 85.8655 118.205 90.5951C118.166 93.1571 114.934 96.2314 110.125 100.606L97.9071 91.3834L85.7676 62.02L97.513 53.6248Z" fill="url(#paint20_linear)"/>
<path d="M311.334 75.3418V80.1109L308.023 79.2438L311.334 75.3418Z" fill="#607F93"/>
<path d="M190.807 113.968C190.807 113.968 215.953 84.0129 284.336 78.9285C286.622 78.7708 287.844 76.2089 286.583 74.317C286.425 74.1199 286.267 73.8835 286.11 73.647C285.637 74.0805 285.046 74.3564 284.336 74.3958C215.953 79.4803 190.807 113.968 190.807 113.968Z" fill="#607F93"/>
<path d="M213.864 111.485C229.077 100.173 257.456 86.4173 306.092 85.4713C310.192 85.3925 312.714 80.8993 310.586 77.352C289.854 42.7465 208.543 -4.94453 119.822 20.044C78.5156 31.6711 59.0057 70.8093 108.549 106.045C109.574 106.794 110.914 106.952 112.096 106.479C124.985 101.079 146.663 98.675 165.305 101.119L174.844 93.3936C146.111 90.4769 124.67 93.1177 110.126 100.606C83.7577 78.7709 88.2903 43.2983 126.916 33.7601C210.986 12.9495 273.3 54.6101 286.583 74.3172C287.844 76.209 286.622 78.7709 284.336 78.9286C247.287 81.6876 222.929 91.6988 208.385 100.33L213.864 111.485Z" fill="url(#paint21_linear)"/>
<path d="M119.822 20.0438C208.543 -4.94471 289.854 42.7463 310.586 77.3519C310.665 77.5095 310.783 77.6672 310.862 77.8642C311.571 76.3271 311.571 74.514 310.586 72.8587C289.854 38.2531 208.543 -9.47733 119.822 15.5506C94.873 22.5663 79.8956 39.5144 79.2256 59.8126C80.5263 41.6427 96.7648 26.5471 119.822 20.0438Z" fill="#607F93"/>
<path d="M185.17 144.04C185.013 144.04 184.855 144.04 184.737 144.001C183.436 143.765 182.608 142.503 182.845 141.203L196.522 69.272C196.758 67.9713 198.019 67.1436 199.32 67.3801C200.621 67.6166 201.448 68.8778 201.212 70.1785L187.535 142.109C187.259 143.252 186.274 144.04 185.17 144.04Z" fill="#607F93"/>
<path d="M217.374 110.037C218.544 102.817 207.821 95.0738 193.425 92.7418C179.029 90.4097 166.41 94.3719 165.241 101.592C164.071 108.811 174.794 116.554 189.19 118.886C203.586 121.218 216.205 117.256 217.374 110.037Z" fill="white"/>
<path d="M215.433 122.063C216.602 114.844 205.88 107.1 191.484 104.768C177.087 102.436 164.469 106.399 163.299 113.618C162.13 120.838 172.852 128.581 187.248 130.913C201.645 133.245 214.263 129.283 215.433 122.063Z" fill="#B8CCBC"/>
<path d="M186.472 149.401C185.447 149.401 184.383 149.322 183.358 149.086C174.332 147.351 168.381 138.641 170.115 129.615L177.485 93.0783C179.22 84.0524 187.93 78.1009 196.956 79.8351C205.982 81.5694 211.933 90.2799 210.199 99.3057L202.829 135.843C201.291 143.844 194.315 149.401 186.472 149.401Z" fill="white"/>
<path d="M173.386 112.43C183.555 110.933 198.768 115.859 205.39 123.19L207.794 111.051L182.569 106.873L173.386 112.43Z" fill="#607F93"/>
<path d="M191.477 104.745C177.051 102.419 164.439 106.361 163.296 113.573C162.901 116.135 163.966 118.737 166.133 121.141C166.015 120.471 166.015 119.801 166.094 119.131C167.119 112.864 178.036 109.435 190.531 111.484C203.025 113.495 212.327 120.195 211.302 126.462C211.223 127.014 211.026 127.565 210.79 128.078C213.391 126.501 215.046 124.452 215.44 122.047C216.623 114.835 205.902 107.109 191.477 104.745Z" fill="white"/>
<path d="M193.407 92.7234C200.068 93.7876 205.941 96.0342 210.237 98.872C199.556 89.5703 180.479 88.4273 179.021 88.5456C178.351 89.8462 177.839 91.2651 177.523 92.7629C182.095 91.8563 187.613 91.7775 193.407 92.7234Z" fill="#607F93"/>
<path d="M198.847 74.0017C201.22 74.0017 203.143 72.0782 203.143 69.7056C203.143 67.3329 201.22 65.4094 198.847 65.4094C196.474 65.4094 194.551 67.3329 194.551 69.7056C194.551 72.0782 196.474 74.0017 198.847 74.0017Z" fill="#607F93"/>
<path d="M86.7137 23.5911C86.7137 23.5911 86.7926 23.4729 86.9108 23.2364C86.9502 23.197 86.9896 23.1182 87.0291 23.0393C87.0685 22.9605 87.1473 22.8423 87.1867 22.7634C87.305 22.5664 87.4626 22.2905 87.6203 22.054C88.2903 21.0686 89.3545 19.8468 90.8522 18.5067C92.35 17.1667 94.2813 15.7477 96.6067 14.2894C98.9321 12.8705 101.652 11.4516 104.687 10.0721C107.721 8.73204 111.072 7.43138 114.698 6.28837C118.324 5.14536 122.147 4.1206 126.207 3.25349C134.247 1.51927 142.997 0.45509 151.747 0.139778C156.122 -0.0178783 160.497 -0.0572924 164.793 0.100364C169.089 0.25802 173.306 0.533919 177.406 0.928059C181.465 1.3222 185.407 1.83458 189.111 2.38638C192.816 2.97759 196.285 3.60822 199.517 4.23884C202.709 4.90888 205.665 5.5395 208.227 6.17013C209.528 6.48544 210.71 6.80075 211.853 7.07665C212.957 7.35255 213.982 7.62845 214.888 7.86493C216.741 8.37732 218.16 8.77146 219.145 9.04736C220.13 9.32325 220.643 9.48091 220.643 9.48091C220.643 9.48091 220.13 9.32325 219.145 9.08677C218.16 8.81087 216.701 8.45614 214.849 7.98318C213.942 7.74669 212.918 7.51021 211.775 7.23431C210.671 6.95841 209.449 6.68251 208.148 6.40661C205.547 5.8154 202.63 5.26361 199.399 4.67239C196.167 4.1206 192.698 3.5688 188.993 3.05642C185.288 2.58345 181.386 2.18931 177.327 1.874C173.267 1.55868 169.05 1.40103 164.793 1.36161C160.457 1.44044 156.122 1.55868 151.786 1.83458C143.155 2.38638 134.562 3.64763 126.68 5.50009C122.738 6.44603 118.994 7.54962 115.486 8.73204C111.978 9.95388 108.746 11.2545 105.869 12.634C102.952 14.0135 100.39 15.4324 98.2227 16.8513C96.0549 18.2702 94.2813 19.6103 92.9806 20.8716C91.6405 22.0934 90.8128 23.1576 90.3398 23.9065C90.2216 24.1035 90.1428 24.2218 90.0639 24.34C90.0245 24.4188 89.9851 24.4583 89.9457 24.4977C89.9063 24.5765 89.8669 24.6553 89.8669 24.6947C89.7486 24.9312 89.7092 25.0495 89.7092 25.0495C89.3151 25.8772 88.3297 26.2319 87.502 25.8377C86.6743 25.4436 86.3196 24.4583 86.7137 23.5911Z" fill="white"/>
<path d="M57.3495 16.4567C57.3495 16.4567 57.4283 16.3384 57.5466 16.1413C57.6254 16.0231 57.7042 15.9049 57.7831 15.7472C57.8225 15.6684 57.8619 15.5896 57.9407 15.4713C58.0195 15.3531 58.0984 15.2742 58.1772 15.156C58.3349 14.9195 58.5319 14.683 58.729 14.4071C58.9261 14.1706 59.1626 13.9342 59.399 13.6583C59.5173 13.54 59.6355 13.3824 59.7538 13.2641C59.872 13.1459 60.0297 12.9882 60.1479 12.87C60.4238 12.5941 60.6997 12.3182 61.0544 12.0423C61.3697 11.7664 61.7245 11.4905 62.0398 11.2146C62.3945 10.9387 62.7492 10.6628 63.1434 10.3869C63.5375 10.111 63.9317 9.8351 64.3258 9.5592C64.7199 9.2833 65.1535 9.0074 65.587 8.7315C66.0206 8.4556 66.4542 8.21912 66.9271 7.94322C67.3607 7.66732 67.8336 7.43084 68.3066 7.19435C69.2131 6.68197 70.1985 6.209 71.1444 5.73603C72.1298 5.30248 73.0757 4.82951 74.0611 4.43537C75.0464 4.04123 75.9924 3.60768 76.9383 3.29236C77.4113 3.13471 77.8448 2.93764 78.3178 2.77998C78.7513 2.62232 79.2243 2.46467 79.6579 2.30701C80.525 1.9917 81.3527 1.7158 82.1015 1.47932C82.8504 1.24283 83.5599 1.04576 84.1905 0.848691C84.8211 0.691035 85.3729 0.533379 85.8065 0.415137C86.713 0.178652 87.2254 0.0209961 87.2254 0.0209961C87.2254 0.0209961 86.713 0.218066 85.8853 0.533379C85.4517 0.691035 84.9393 0.888105 84.3481 1.12459C83.7569 1.36107 83.0869 1.63697 82.338 1.95229C81.5892 2.2676 80.8403 2.62232 80.0126 2.97705C79.6185 3.17412 79.1849 3.37119 78.7513 3.56826C78.3178 3.76533 77.8842 4.00182 77.4507 4.19889C76.5442 4.63244 75.677 5.10541 74.7705 5.61779C73.864 6.09076 72.9575 6.64256 72.051 7.15494C71.1838 7.70674 70.2773 8.25853 69.4496 8.84975C69.0161 9.12564 68.6219 9.40154 68.1884 9.71685C67.7942 10.0322 67.4001 10.3081 67.0059 10.584C66.6118 10.8599 66.2571 11.1752 65.9024 11.4905C65.5476 11.7664 65.1929 12.0817 64.8776 12.3576C64.5623 12.6729 64.247 12.9488 63.9317 13.2247C63.6558 13.5006 63.3799 13.7765 63.104 14.0524C62.8281 14.3283 62.631 14.6042 62.3945 14.8407C62.2763 14.9589 62.158 15.0772 62.0792 15.1954C62.0004 15.3137 61.8821 15.4319 61.8033 15.5501C61.6456 15.7866 61.488 16.0231 61.3303 16.2202C61.2121 16.4172 61.1333 16.5749 61.015 16.7326C60.9756 16.8114 60.9362 16.8902 60.8968 16.9296C60.8574 17.0085 60.8179 17.0873 60.7785 17.1661C60.6997 17.3238 60.6209 17.4814 60.5815 17.5997C60.4632 17.8362 60.4238 17.9544 60.4238 17.9544C60.0297 18.7821 59.0443 19.1368 58.2166 18.7821C57.3889 18.3879 57.0342 17.4026 57.3889 16.5749C57.3101 16.5355 57.3101 16.4961 57.3495 16.4567Z" fill="white"/>
<path d="M51.0818 139.626L39.1787 163.275L49.6629 167.295H116.115L104.803 130.6C91.0476 130.6 64.4037 133.714 51.0818 139.626Z" fill="url(#paint22_linear)"/>
<path d="M96.2903 127.368C96.9209 128.275 98.064 129.93 95.8568 136.591C94.5167 140.612 99.1281 153.736 102.794 163.59L86.5156 129.852L96.2903 127.368Z" fill="url(#paint23_linear)"/>
<path d="M94.201 203.241L97.63 194.727L94.201 188.776C94.201 188.776 43.6721 172.616 44.1057 154.84L34.8828 157.993L45.2093 176.912L63.1821 189.406L94.201 203.241Z" fill="#2E353D"/>
<path d="M94.2017 203.24C73.194 193.742 40.5592 176.715 40.5592 162.329C40.5592 148.613 69.4103 144.908 79.6185 144.041C81.7075 143.843 83.6388 145.026 84.4665 146.957L106.735 203.24H117.535L89.8662 137.143C88.7626 134.502 86.0824 132.926 83.2446 133.162C69.3315 134.384 30.8239 139.074 29.9174 159.176C29.0897 177.621 67.6761 194.057 94.2411 204.896V203.24H94.2017Z" fill="url(#paint24_linear)"/>
<path d="M83.2438 133.123C86.0816 132.887 88.7618 134.503 89.8653 137.104L115.682 198.747H117.534L89.8653 132.65C88.7618 130.009 86.0816 128.472 83.2438 128.669C65.8622 129.931 31.8084 135.33 30.0742 157.442C32.9909 138.799 69.7248 134.305 83.2438 133.123Z" fill="#607F93"/>
<path d="M69.8428 130.285C69.8428 130.285 83.7165 127.723 96.2896 127.368C91.4023 129.26 90.0622 133.241 91.4811 136.591L84.1501 130.837L69.8428 130.285Z" fill="#607F93"/>
<path d="M109.888 225.155C109.769 225.155 109.651 225.155 109.493 225.115C108.429 224.918 107.68 223.854 107.917 222.79L119.386 162.408C119.583 161.343 120.648 160.634 121.712 160.831C122.776 161.028 123.525 162.092 123.288 163.156L111.819 223.539C111.661 224.485 110.794 225.155 109.888 225.155Z" fill="#607F93"/>
<path d="M136.927 196.617C137.908 190.557 128.897 184.057 116.8 182.097C104.703 180.138 94.1006 183.461 93.119 189.52C92.1375 195.58 101.148 202.08 113.246 204.04C125.343 206 135.945 202.676 136.927 196.617Z" fill="white"/>
<path d="M135.3 206.705C136.281 200.646 127.27 194.145 115.173 192.185C103.076 190.226 92.4736 193.549 91.4921 199.608C90.5105 205.668 99.5215 212.168 111.619 214.128C123.716 216.088 134.318 212.764 135.3 206.705Z" fill="#B8CCBC"/>
<path d="M110.992 229.648C110.124 229.648 109.257 229.569 108.351 229.412C100.783 227.953 95.7777 220.662 97.2361 213.094L103.424 182.43C104.882 174.862 112.174 169.857 119.741 171.315C127.309 172.773 132.315 180.065 130.856 187.633L124.668 218.297C123.407 224.997 117.534 229.648 110.992 229.648Z" fill="white"/>
<path d="M99.9951 198.629C108.509 197.368 121.318 201.506 126.836 207.655L128.886 197.447L107.72 193.939L99.9951 198.629Z" fill="#607F93"/>
<path d="M115.169 192.205C103.069 190.234 92.467 193.584 91.521 199.614C91.1663 201.743 92.0728 203.95 93.9253 205.96C93.8071 205.408 93.8071 204.817 93.8859 204.265C94.753 199.023 103.897 196.146 114.381 197.841C124.865 199.536 132.669 205.172 131.802 210.414C131.723 210.887 131.566 211.32 131.369 211.754C133.536 210.453 134.955 208.719 135.271 206.709C136.256 200.639 127.27 194.136 115.169 192.205Z" fill="white"/>
<path d="M116.785 182.115C122.382 183.021 127.309 184.913 130.895 187.238C121.948 179.434 105.907 178.488 104.685 178.567C104.133 179.671 103.7 180.853 103.424 182.115C107.326 181.366 111.937 181.326 116.785 182.115Z" fill="url(#paint25_linear)"/>
<path d="M108.469 181.563L106.222 176.242C104.882 177.897 103.897 179.907 103.424 182.115C105 181.839 106.695 181.642 108.469 181.563Z" fill="url(#paint26_linear)"/>
<path d="M110.321 181.523L107.523 174.862C107.05 175.296 106.656 175.769 106.262 176.242L108.508 181.563C109.06 181.523 109.691 181.523 110.321 181.523Z" fill="#607F93"/>
<path d="M123.932 165.359C125.348 163.943 125.348 161.647 123.932 160.231C122.516 158.815 120.22 158.815 118.804 160.231C117.388 161.647 117.388 163.943 118.804 165.359C120.22 166.775 122.516 166.775 123.932 165.359Z" fill="#607F93"/>
<path d="M40.5589 136.118C40.5589 136.118 40.48 136.158 40.3224 136.237C40.2436 136.276 40.1647 136.316 40.0465 136.355C39.9677 136.394 39.8494 136.473 39.7312 136.513C39.2188 136.789 38.4699 137.222 37.5634 137.813C35.7109 139.035 33.149 141.006 30.5477 143.804C29.247 145.223 27.9464 146.839 26.8034 148.692C25.6604 150.544 24.675 152.633 24.0444 154.919C23.4137 157.205 23.1773 159.649 23.4137 162.132C23.532 163.354 23.8079 164.615 24.1626 165.837C24.5173 167.059 24.9903 168.241 25.5421 169.384C26.6457 171.709 28.1434 173.838 29.7988 175.808C31.4542 177.779 33.2673 179.553 35.1591 181.169C37.0116 182.785 38.9429 184.243 40.7954 185.544C41.2683 185.859 41.7019 186.174 42.1748 186.49C42.6478 186.805 43.0814 187.081 43.5149 187.396C44.4214 187.948 45.2886 188.539 46.1557 189.012C47.0228 189.525 47.8111 189.997 48.5993 190.47C49.3876 190.904 50.1365 191.338 50.8459 191.732C52.2648 192.52 53.5261 193.151 54.5509 193.663C55.5756 194.175 56.4033 194.57 56.9551 194.845C57.5069 195.121 57.8222 195.279 57.8222 195.279C57.8222 195.279 57.5069 195.161 56.9551 194.885C56.4033 194.648 55.5362 194.294 54.5114 193.781C53.4473 193.308 52.186 192.717 50.7277 191.968C49.9788 191.613 49.23 191.219 48.4417 190.786C47.614 190.392 46.7863 189.919 45.9192 189.446C45.0521 188.973 44.1455 188.421 43.1996 187.909C42.7266 187.633 42.2537 187.357 41.7807 187.041C41.3077 186.766 40.8348 186.45 40.3618 186.135C38.4305 184.913 36.4598 183.494 34.4891 181.957C32.5184 180.38 30.5871 178.646 28.8135 176.676C27.0398 174.705 25.3845 172.537 24.0838 170.133C23.4137 168.95 22.9014 167.65 22.4284 166.349C21.9948 165.048 21.6401 163.708 21.4825 162.368C21.0883 159.649 21.246 156.89 21.8766 154.367C22.4678 151.805 23.4926 149.48 24.6356 147.43C25.818 145.341 27.1187 143.528 28.4587 141.952C31.1389 138.799 33.8191 136.591 35.7503 135.173C36.7357 134.463 37.5634 133.951 38.1546 133.596C38.3123 133.517 38.4305 133.438 38.5487 133.359C38.667 133.32 38.7458 133.241 38.8246 133.202C38.9823 133.123 39.0217 133.084 39.0217 133.084C39.8494 132.65 40.8348 132.926 41.2683 133.754C41.7019 134.581 41.426 135.567 40.5983 136C40.5983 136.118 40.5589 136.118 40.5589 136.118Z" fill="white"/>
<path d="M40.7555 123.388C40.7555 123.388 40.4402 123.506 39.849 123.664C39.5731 123.742 39.2972 123.861 38.903 123.979C38.5089 124.137 38.1148 124.294 37.6418 124.491C37.1688 124.688 36.6959 124.925 36.1441 125.161C35.6317 125.398 35.0799 125.674 34.5281 125.989C34.2522 126.147 33.9763 126.304 33.661 126.462C33.3851 126.62 33.1092 126.817 32.7939 126.974C32.2027 127.29 31.6509 127.684 31.0596 128.078C30.5078 128.472 29.9166 128.866 29.4043 129.26C29.1284 129.457 28.8525 129.654 28.616 129.891C28.3795 130.088 28.1036 130.325 27.8671 130.522C27.3547 130.916 26.9212 131.349 26.4876 131.743C26.0541 132.138 25.6599 132.571 25.3052 132.926C24.9505 133.281 24.6352 133.675 24.3593 133.99C24.0834 134.305 23.8469 134.581 23.6498 134.818C23.2557 135.291 23.0586 135.567 23.0586 135.567C23.0586 135.567 23.2162 135.251 23.5316 134.739C23.6892 134.463 23.8469 134.148 24.0834 133.793C24.3198 133.438 24.5563 133.005 24.8716 132.611C25.187 132.177 25.5023 131.704 25.8964 131.231C26.2905 130.758 26.6847 130.246 27.1182 129.773C27.3547 129.536 27.5518 129.26 27.7883 129.024C28.0248 128.787 28.2612 128.511 28.4977 128.275C28.9707 127.763 29.5225 127.29 30.0349 126.777C30.5867 126.304 31.0991 125.831 31.6509 125.398C31.9268 125.161 32.2027 124.964 32.4786 124.728C32.7545 124.531 33.0304 124.294 33.3062 124.097C33.858 123.703 34.3704 123.309 34.8828 122.954C35.3952 122.599 35.9076 122.284 36.3411 122.008C36.8141 121.732 37.2477 121.496 37.6418 121.259C38.0359 121.023 38.4301 120.865 38.706 120.707C39.2578 120.432 39.5731 120.313 39.5731 120.313C40.4008 119.919 41.3861 120.274 41.7803 121.102C42.1744 121.929 41.8197 122.915 40.992 123.309C40.9132 123.309 40.8343 123.348 40.7555 123.388Z" fill="white"/>
<path d="M3.35176 182.075C3.35176 182.075 3.35176 182.193 3.35176 182.39C3.35176 182.509 3.35176 182.627 3.35176 182.785C3.35176 182.903 3.39118 183.06 3.39118 183.218C3.47 183.849 3.66707 184.913 4.17946 186.214C4.69184 187.514 5.51954 189.051 6.74137 190.667C7.92379 192.323 9.46094 194.096 11.274 195.87C14.9395 199.457 19.748 203.201 25.2266 206.709C30.7051 210.217 36.8537 213.567 43.16 216.523C49.4662 219.479 55.9695 222.12 62.1181 224.327C68.3061 226.534 74.1394 228.308 79.2238 229.727C81.7463 230.436 84.0718 231.027 86.1607 231.54C88.2497 232.052 90.0627 232.486 91.5604 232.801C93.0582 233.116 94.2406 233.392 95.0289 233.55C95.8172 233.707 96.2507 233.826 96.2507 233.826C96.2507 233.826 95.8172 233.747 95.0289 233.589C94.2012 233.432 93.0188 233.235 91.521 232.959C90.0233 232.683 88.1708 232.289 86.0819 231.855C83.9929 231.382 81.6281 230.87 79.1056 230.239C73.9818 228.978 68.0696 227.362 61.8028 225.312C55.536 223.263 48.9538 220.858 42.4899 218.021C36.026 215.222 29.7198 212.03 24.0441 208.64C18.3685 205.251 13.2841 201.585 9.3427 197.92C7.372 196.106 5.67719 194.254 4.2977 192.48C2.91821 190.707 1.93286 188.973 1.2234 187.435C0.553363 185.898 0.23805 184.558 0.119808 183.573C0.0803941 183.336 0.0803941 183.1 0.0409801 182.903C0.0409801 182.745 0.0409801 182.627 0.00156602 182.509C0.00156602 182.312 0.00156602 182.193 0.00156602 182.193C-0.037848 181.287 0.671605 180.498 1.57813 180.459C2.48465 180.42 3.27293 181.129 3.31235 182.036C3.35176 182.036 3.35176 182.036 3.35176 182.075Z" fill="white"/>
<defs>
<linearGradient id="paint0_linear" x1="233.591" y1="165.581" x2="24.5764" y2="252.092" gradientUnits="userSpaceOnUse">
<stop stop-color="#FFE497"/>
<stop offset="1" stop-color="white" stop-opacity="0"/>
</linearGradient>
<linearGradient id="paint1_linear" x1="296.312" y1="279.108" x2="55.6422" y2="378.72" gradientUnits="userSpaceOnUse">
<stop stop-color="#FFDC78"/>
<stop offset="1" stop-color="white" stop-opacity="0"/>
</linearGradient>
<linearGradient id="paint2_linear" x1="196.588" y1="235.846" x2="32.9867" y2="303.56" gradientUnits="userSpaceOnUse">
<stop stop-color="#FFE497"/>
<stop offset="1" stop-color="white" stop-opacity="0"/>
</linearGradient>
<linearGradient id="paint3_linear" x1="117.682" y1="171.958" x2="187.636" y2="182.718" gradientUnits="userSpaceOnUse">
<stop stop-color="white"/>
<stop offset="0.1493" stop-color="#CDCDCD"/>
<stop offset="0.3839" stop-color="#858585"/>
<stop offset="0.5949" stop-color="#4C4C4C"/>
<stop offset="0.7743" stop-color="#232323"/>
<stop offset="0.9151" stop-color="#090909"/>
<stop offset="1"/>
</linearGradient>
<linearGradient id="paint4_linear" x1="117.682" y1="171.958" x2="187.636" y2="182.718" gradientUnits="userSpaceOnUse">
<stop stop-color="white"/>
<stop offset="1" stop-color="white"/>
</linearGradient>
<linearGradient id="paint5_linear" x1="312.418" y1="239.91" x2="409.463" y2="217.786" gradientUnits="userSpaceOnUse">
<stop stop-color="#2E353D"/>
<stop offset="1" stop-color="#526A7F"/>
</linearGradient>
<linearGradient id="paint6_linear" x1="183.854" y1="188.036" x2="152.499" y2="188.036" gradientUnits="userSpaceOnUse">
<stop stop-color="#2E353D"/>
<stop offset="1" stop-color="#526A7F"/>
</linearGradient>
<linearGradient id="paint7_linear" x1="321.787" y1="187.837" x2="400.426" y2="187.837" gradientUnits="userSpaceOnUse">
<stop stop-color="#2E353D"/>
<stop offset="1" stop-color="#526A7F"/>
</linearGradient>
<linearGradient id="paint8_linear" x1="261.632" y1="185.373" x2="232.118" y2="131.538" gradientUnits="userSpaceOnUse">
<stop stop-color="#2E353D"/>
<stop offset="1" stop-color="#526A7F"/>
</linearGradient>
<linearGradient id="paint9_linear" x1="166.868" y1="195.992" x2="345.886" y2="195.992" gradientUnits="userSpaceOnUse">
<stop stop-color="#2E353D"/>
<stop offset="1" stop-color="#526A7F"/>
</linearGradient>
<linearGradient id="paint10_linear" x1="166.849" y1="208.893" x2="345.412" y2="208.893" gradientUnits="userSpaceOnUse">
<stop stop-color="#99CAE2"/>
<stop offset="0.1878" stop-color="#BADBEB"/>
<stop offset="0.401" stop-color="#D8EBF4"/>
<stop offset="0.6106" stop-color="#EEF6FA"/>
<stop offset="0.8129" stop-color="#FBFDFE"/>
<stop offset="1" stop-color="white"/>
</linearGradient>
<linearGradient id="paint11_linear" x1="168.741" y1="214.475" x2="343.362" y2="214.475" gradientUnits="userSpaceOnUse">
<stop stop-color="#526A7F"/>
<stop offset="1" stop-color="#2E353D"/>
</linearGradient>
<linearGradient id="paint12_linear" x1="218.131" y1="233.499" x2="294.272" y2="233.499" gradientUnits="userSpaceOnUse">
<stop stop-color="#FFB948"/>
<stop offset="1" stop-color="#DD8A05"/>
</linearGradient>
<linearGradient id="paint13_linear" x1="311.33" y1="236.254" x2="311.33" y2="323.484" gradientUnits="userSpaceOnUse">
<stop stop-color="#FFB948"/>
<stop offset="1" stop-color="#DD8A05"/>
</linearGradient>
<linearGradient id="paint14_linear" x1="445.976" y1="158.899" x2="507.521" y2="121.162" gradientUnits="userSpaceOnUse">
<stop stop-color="white"/>
<stop offset="1" stop-color="white"/>
</linearGradient>
<linearGradient id="paint15_linear" x1="376.247" y1="147.323" x2="508.107" y2="147.323" gradientUnits="userSpaceOnUse">
<stop stop-color="#2E353D"/>
<stop offset="1" stop-color="#526A7F"/>
</linearGradient>
<linearGradient id="paint16_linear" x1="398.107" y1="165.234" x2="483.798" y2="165.234" gradientUnits="userSpaceOnUse">
<stop stop-color="#2E353D"/>
<stop offset="1" stop-color="#526A7F"/>
</linearGradient>
<linearGradient id="paint17_linear" x1="209.33" y1="87.4104" x2="269.057" y2="50.788" gradientUnits="userSpaceOnUse">
<stop stop-color="white"/>
<stop offset="1" stop-color="white"/>
</linearGradient>
<linearGradient id="paint18_linear" x1="115.119" y1="40.1336" x2="182.952" y2="86.4742" gradientUnits="userSpaceOnUse">
<stop stop-color="white"/>
<stop offset="1" stop-color="white"/>
</linearGradient>
<linearGradient id="paint19_linear" x1="135.472" y1="94.7472" x2="180.922" y2="94.7472" gradientUnits="userSpaceOnUse">
<stop stop-color="#607F93"/>
<stop offset="1" stop-color="#2E353D"/>
</linearGradient>
<linearGradient id="paint20_linear" x1="110.821" y1="97.3761" x2="98.2909" y2="67.5011" gradientUnits="userSpaceOnUse">
<stop stop-color="#526A7F"/>
<stop offset="1" stop-color="#2E353D"/>
</linearGradient>
<linearGradient id="paint21_linear" x1="79.1722" y1="62.2885" x2="311.347" y2="62.2885" gradientUnits="userSpaceOnUse">
<stop stop-color="#526A7F"/>
<stop offset="1" stop-color="#2E353D"/>
</linearGradient>
<linearGradient id="paint22_linear" x1="54.2038" y1="129.602" x2="109.46" y2="183.401" gradientUnits="userSpaceOnUse">
<stop stop-color="white"/>
<stop offset="1" stop-color="white"/>
</linearGradient>
<linearGradient id="paint23_linear" x1="109.566" y1="150.769" x2="82.8879" y2="136.661" gradientUnits="userSpaceOnUse">
<stop stop-color="#2E353D"/>
<stop offset="1" stop-color="#526A7F"/>
</linearGradient>
<linearGradient id="paint24_linear" x1="125.073" y1="188.984" x2="37.0843" y2="142.454" gradientUnits="userSpaceOnUse">
<stop stop-color="#2E353D"/>
<stop offset="1" stop-color="#526A7F"/>
</linearGradient>
<linearGradient id="paint25_linear" x1="103.463" y1="182.907" x2="130.911" y2="182.907" gradientUnits="userSpaceOnUse">
<stop stop-color="#2E353D"/>
<stop offset="1" stop-color="#526A7F"/>
</linearGradient>
<linearGradient id="paint26_linear" x1="93.7107" y1="179.189" x2="108.281" y2="179.189" gradientUnits="userSpaceOnUse">
<stop stop-color="#526A7F"/>
<stop offset="1" stop-color="#2E353D"/>
</linearGradient>
<clipPath id="clip0">
<rect width="280.5" height="276.7" fill="white" transform="translate(0 137)"/>
</clipPath>
</defs>
</svg>
