<svg width="40" height="40" viewBox="0 0 40 40" fill="none" xmlns="http://www.w3.org/2000/svg">
<path d="M34 18C35.9 18 40 13.2 40 8C40 4.7 37.3 2 34 2C30.7 2 28 4.7 28 8C28 13.2 32.1 18 34 18ZM34 4C36.2 4 38 5.8 38 8C38 12.2 34.9 15.5 34 16C33.1 15.5 30 12.3 30 8C30 5.8 31.8 4 34 4Z" fill="#C5691C"/>
<path d="M34 10C35.1046 10 36 9.10457 36 8C36 6.89543 35.1046 6 34 6C32.8954 6 32 6.89543 32 8C32 9.10457 32.8954 10 34 10Z" fill="#C5691C"/>
<path d="M19 20H1C0.4 20 0 20.4 0 21V37C0 37.6 0.4 38 1 38H19C19.6 38 20 37.6 20 37V21C20 20.4 19.6 20 19 20ZM9 22H11V24.6L10.7 24.3C10.3 23.9 9.7 23.9 9.3 24.3L9 24.6V22ZM18 36H2V22H7V27C7 27.4 7.20001 27.8 7.60001 27.9C8.00001 28.1 8.4 28 8.7 27.7L10 26.4L11.3 27.7C11.5 27.9 11.7 28 12 28C12.1 28 12.3 28 12.4 27.9C12.8 27.7 13 27.4 13 27V22H18V36Z" fill="#C5691C"/>
<path d="M33 24H27C25.5 24 25 22.9 25 22C25 21.1 25.5 20 27 20H29C29.6 20 30 19.6 30 19C30 18.4 29.6 18 29 18H27C24.4 18 23 20 23 22C23 24 24.4 26 27 26H33C34.5 26 35 27.1 35 28C35 28.9 34.5 30 33 30H25C24.4 30 24 30.4 24 31C24 31.6 24.4 32 25 32H33C35.6 32 37 30 37 28C37 26 35.6 24 33 24Z" fill="#31303E"/>
</svg>
