<svg width="40" height="40" viewBox="0 0 40 40" fill="none" xmlns="http://www.w3.org/2000/svg">
<path d="M13.5 10.9C13.8 11.1 14.2 11.1 14.5 10.9L16.9 9.3L19.3 10.9C19.5 11 19.7 11.1 19.9 11.1C20.1 11.1 20.2 11.1 20.4 11C20.7 10.8 20.9 10.5 20.9 10.1V5.1H30.9V18.1C30.9 18.7 31.3 19.1 31.9 19.1C32.5 19.1 32.9 18.7 32.9 18.1V4C32.9 3.4 32.5 3 31.9 3H2C1.4 3 1 3.4 1 4V30C1 30.6 1.4 31 2 31H20C20.6 31 21 30.6 21 30C21 29.4 20.6 29 20 29H3V5H13V10C13 10.4 13.2 10.7 13.5 10.9ZM19 8.1L17.6 7.1C17.3 6.9 16.8 6.9 16.5 7.1L15.1 8.1V5H19.1V8.1H19Z" fill="#C5691C"/>
<path d="M38.7 35.3L35.9 32.5C36.6 31.5 37 30.3 37 29C37 25.7 34.3 23 31 23C27.7 23 25 25.7 25 29C25 32.3 27.7 35 31 35C32.3 35 33.5 34.6 34.5 33.9L37.3 36.7C37.5 36.9 37.8 37 38 37C38.2 37 38.5 36.9 38.7 36.7C39.1 36.3 39.1 35.7 38.7 35.3ZM27 29C27 26.8 28.8 25 31 25C33.2 25 35 26.8 35 29C35 31.2 33.2 33 31 33C28.8 33 27 31.2 27 29Z" fill="#31303E"/>
</svg>
