<svg width="40" height="40" viewBox="0 0 40 40" fill="none" xmlns="http://www.w3.org/2000/svg">
<path d="M29 12H17C16.4 12 16 12.4 16 13C16 13.6 16.4 14 17 14H29C29.6 14 30 13.6 30 13C30 12.4 29.6 12 29 12Z" fill="#C5691C"/>
<path d="M13 12H11C10.4 12 10 12.4 10 13C10 13.6 10.4 14 11 14H13C13.6 14 14 13.6 14 13C14 12.4 13.6 12 13 12Z" fill="#C5691C"/>
<path d="M29 18H17C16.4 18 16 18.4 16 19C16 19.6 16.4 20 17 20H29C29.6 20 30 19.6 30 19C30 18.4 29.6 18 29 18Z" fill="#C5691C"/>
<path d="M13 18H11C10.4 18 10 18.4 10 19C10 19.6 10.4 20 11 20H13C13.6 20 14 19.6 14 19C14 18.4 13.6 18 13 18Z" fill="#C5691C"/>
<path d="M19 24H17C16.4 24 16 24.4 16 25C16 25.6 16.4 26 17 26H19C19.6 26 20 25.6 20 25C20 24.4 19.6 24 19 24Z" fill="#C5691C"/>
<path d="M13 24H11C10.4 24 10 24.4 10 25C10 25.6 10.4 26 11 26H13C13.6 26 14 25.6 14 25C14 24.4 13.6 24 13 24Z" fill="#C5691C"/>
<path d="M19 38H17C16.4 38 16 38.4 16 39C16 39.6 16.4 40 17 40H19C19.6 40 20 39.6 20 39C20 38.4 19.6 38 19 38Z" fill="#C5691C"/>
<path d="M35 24V22C35 21.4 34.6 21 34 21C33.4 21 33 21.4 33 22V24C33 24.6 33.4 25 34 25C34.6 25 35 24.6 35 24Z" fill="#C5691C"/>
<path d="M13 30H11C10.4 30 10 30.4 10 31C10 31.6 10.4 32 11 32H13C13.6 32 14 31.6 14 31C14 30.4 13.6 30 13 30Z" fill="#C5691C"/>
<path fill-rule="evenodd" clip-rule="evenodd" d="M32 4H28V3C28 2.4 27.6 2 27 2H13C12.4 2 12 2.4 12 3V4H8C6.3 4 5 5.3 5 7V37C5 38.7 6.3 40 8 40H17V38H8C7.4 38 7 37.6 7 37V7C7 6.4 7.4 6 8 6H12V7C12 7.6 12.4 8 13 8H27C27.6 8 28 7.6 28 7V6H32C32.6 6 33 6.4 33 7V24H35V7C35 5.3 33.7 4 32 4ZM26 4H14V6H26V4Z" fill="#C5691C"/>
<path d="M28 26C24.1 26 21 29.1 21 33C21 36.9 24.1 40 28 40C31.9 40 35 36.9 35 33C35 29.1 31.9 26 28 26ZM28 38C25.2 38 23 35.8 23 33C23 30.2 25.2 28 28 28C30.8 28 33 30.2 33 33C33 35.8 30.8 38 28 38Z" fill="#31303E"/>
<path d="M28.8 31.3L27.5 32.6L27.2 32.3C26.8 31.9 26.2 31.9 25.8 32.3C25.4 32.7 25.4 33.3 25.8 33.7L26.8 34.7C27 34.9 27.3 35 27.5 35C27.7 35 28 34.9 28.2 34.7L30.2 32.7C30.6 32.3 30.6 31.7 30.2 31.3C29.8 30.9 29.2 30.9 28.8 31.3Z" fill="#31303E"/>
</svg>
